<?xml version="1.0" standalone="no"?>
<!DOCTYPE svg PUBLIC "-//W3C//DTD SVG 1.1//EN" "http://www.w3.org/Graphics/SVG/1.1/DTD/svg11.dtd" >
<svg>
<metadata>
Created by FontForge 20090914 at Wed Jun 29 08:29:52 2016
 By www-data
Copyright c 1992 by CC Font ManipSystems
</metadata>
<defs>
<font id="FuturaExtraBold" horiz-adv-x="1127" >
  <font-face 
    font-family="Futura-ExtraBold"
    font-weight="400"
    font-stretch="normal"
    units-per-em="2048"
    panose-1="2 11 5 0 0 0 0 0 0 0"
    ascent="1638"
    descent="-410"
    x-height="959"
    cap-height="1350"
    bbox="-380 -457.001 2579 1741"
    underline-thickness="50"
    underline-position="-75"
    unicode-range="U+0020-U+203A"
  />
<missing-glyph horiz-adv-x="1536" 
d="M256 0v1280h1024v-1280h-1024zM1248 32v1216h-960v-1216h960z" />
    <glyph glyph-name=".notdef" horiz-adv-x="1536" 
d="M256 0v1280h1024v-1280h-1024zM1248 32v1216h-960v-1216h960z" />
    <glyph glyph-name="space" unicode=" " horiz-adv-x="647" 
 />
    <glyph glyph-name="exclam" unicode="!" horiz-adv-x="576" 
d="M338 436c-78.667 0 -143.833 -21.501 -195.5 -64.501s-77.5 -97.833 -77.5 -164.5c0 -47.333 12.667 -88 38 -122s58.333 -59.833 99 -77.5s83.334 -26.5 128.001 -26.5c45.333 0 88.333 9 129 27c41.333 17.333 74.5 43 99.5 77s37.5 74.667 37.5 122
c0 44 -10.833 83.333 -32.5 118s-52.334 61.834 -92.001 81.501s-84.167 29.5 -133.5 29.5zM102.001 517.999h457v924h-457v-924z" />
    <glyph glyph-name="quotedbl" unicode="&#x22;" horiz-adv-x="1164" 
d="M-8 678h358l312 672h-457zM498 678h356l314 672h-455z" />
    <glyph glyph-name="dollar" unicode="$" horiz-adv-x="1082" 
d="M-13 123c66.667 -34.667 124.334 -62.167 173.001 -82.5s94.667 -35.5 138 -45.5s95 -18 155 -24v-205h225v221c132.667 28.667 233.167 84 301.5 166s102.5 186.667 102.5 314c0 70.667 -10.667 130.334 -32 179.001c-22.667 48.667 -58 88.834 -106 120.501
s-112.667 57.5 -194 77.5c-63.333 18 -106.5 30.833 -129.5 38.5s-39.667 15.334 -50 23.001s-15.5 17.167 -15.5 28.5c0 21.333 10.5 38.666 31.5 51.999s47.5 20 79.5 20c90 0 176.667 -34.333 260 -103l148 332c-67.333 51.333 -129.166 86.833 -185.499 106.5
s-126.5 30.5 -210.5 32.5v175h-225v-195c-84.667 -23.333 -156.334 -56.333 -215.001 -99s-102.667 -95 -132 -157c-30 -61.333 -45 -131 -45 -209c0 -99.333 28.333 -181.333 85 -246c55.333 -64.667 135.666 -107.667 240.999 -129l107 -22c57.333 -14 86 -35.333 86 -64
c0 -18.667 -9.83301 -33.834 -29.5 -45.501s-44.167 -17.5 -73.5 -17.5c-51.333 0 -102.833 10.667 -154.5 32s-108.5 55.666 -170.5 102.999z" />
    <glyph glyph-name="percent" unicode="%" horiz-adv-x="1710" 
d="M404 1379c-82 0 -154.334 -15.998 -217.001 -47.998c-62 -32.667 -110.167 -78.5 -144.5 -137.5s-51.5 -127.167 -51.5 -204.5c0 -76.667 19.167 -142.667 57.5 -198s88.833 -96.833 151.5 -124.5s129.334 -41.5 200.001 -41.5c51.333 0 102 7.66699 152 23
c49.333 16 94.166 39.667 134.499 71s71.833 70.166 94.5 116.499s34 99.166 34 158.499c0 58 -9.66699 110.333 -29 157s-47 87.167 -83 121.5s-79.333 60.5 -130 78.5c-51.333 18.667 -107.666 28 -168.999 28zM399.999 1106c26 0 45.999 -10.499 59.999 -31.499
s21 -46.5 21 -76.5c0 -29.333 -7.16699 -54.5 -21.5 -75.5s-34.166 -31.5 -59.499 -31.5c-23.333 0 -42 10.5 -56 31.5s-21 46.167 -21 75.5s7 54.666 21 75.999s32.667 32 56 32zM394.998 -32.9971h213l199 402l510 1036h-207l-205 -403zM1305 731.003
c-82 0 -154.669 -16.001 -218.002 -48.001s-112 -77.333 -146 -136c-34.667 -58 -52 -125.667 -52 -203s19.333 -143.666 58 -198.999s89.334 -97.166 152.001 -125.499s129.334 -42.5 200.001 -42.5c70 0 137 14.667 201 44c64 28 115.667 70.167 155 126.5
s59 123.166 59 200.499c0 76 -17 142.833 -51 200.5s-82.167 102.5 -144.5 134.5s-133.5 48 -213.5 48zM1305 457.002c24.667 0 43.667 -10.333 57 -31c14 -20.667 21 -45 21 -73c0 -28.667 -7 -53.667 -21 -75s-33 -32 -57 -32c-26 0 -46.667 10.5 -62 31.5
s-23 45.167 -23 72.5c0 28.667 7.5 53.667 22.5 75s35.833 32 62.5 32z" />
    <glyph glyph-name="ampersand" unicode="&#x26;" horiz-adv-x="1579" 
d="M1037 0l559 -0.000976562l-317 320l202 176l-266 268l-191 -194l-110 108c77.333 36.667 133.833 80.334 169.5 131.001s53.5 112.334 53.5 185.001c0 80 -22.333 148.333 -67 205c-44 56 -102.333 98.333 -175 127c-72 28 -149 42 -231 42
c-84 0 -163.667 -14.667 -239 -44s-136.333 -73 -183 -131s-70 -127.333 -70 -208c0 -46.667 10.167 -89 30.5 -127s54.5 -81.667 102.5 -131c-68.667 -20.667 -125.5 -46.667 -170.5 -78s-78.5 -69.333 -100.5 -114c-22.667 -44 -34 -95.333 -34 -154
c0 -80.667 21 -152.667 63 -216c42 -62.667 101 -111.334 177 -146.001s162 -52 258 -52c72 0 139 9 201 27s144.333 52.333 247 103zM682 352.999c-40 -23.333 -82.333 -35.001 -127 -35.001c-64 0 -96 30 -96 90c0 18 4.66699 33.833 14 47.5s27.333 31.834 54 54.501z
M643 933.998c-20 26 -30 47.332 -30 63.999c0 22 7 39.333 21 52s30 19 48 19c19.333 0 35.333 -5.66699 48 -17c13.333 -12 20 -28.667 20 -50c0 -14 -4.83301 -28 -14.5 -42s-28.834 -35.667 -57.501 -65c-3.33301 3.33301 -6.16602 6.33301 -8.49902 9
s-4.83301 5.33398 -7.5 8.00098z" />
    <glyph glyph-name="quotesingle" unicode="'" horiz-adv-x="666" 
d="M-4 678h357l313 672h-457z" />
    <glyph glyph-name="parenleft" unicode="(" horiz-adv-x="576" 
d="M588 -301c-51.333 102 -91.998 194.667 -121.998 278c-30.667 84 -52.834 167.833 -66.501 251.5s-20.5 172.834 -20.5 267.501c0 71.333 3.33301 136.333 10 195s18 118 34 178s37.667 124.333 65 193s62 149.667 104 243l-287 149
c-53.333 -101.333 -98.333 -193.333 -135 -276s-66.334 -161.334 -89.001 -236.001s-39.167 -147.5 -49.5 -218.5s-15.5 -145.5 -15.5 -223.5c0 -120 9 -228 27 -324c17.333 -95.333 46.333 -191.333 87 -288c40 -96 95.667 -204 167 -324z" />
    <glyph glyph-name="parenright" unicode=")" horiz-adv-x="576" 
d="M-13 1305c43.333 -96 77.833 -177.332 103.5 -243.999s46.5 -130.5 62.5 -191.5s27.167 -120.833 33.5 -179.5s9.5 -123.334 9.5 -194.001c0 -75.333 -3.5 -144.333 -10.5 -207s-18.5 -125 -34.5 -187s-36.667 -125.333 -62 -190c-25.333 -64 -58 -135 -98 -213l284 -135
c54 86.667 95.333 156.667 124 210s52 106 70 158c60 163.333 90 336.333 90 519c0 320.667 -94.667 655 -284 1003z" />
    <glyph glyph-name="asterisk" unicode="*" horiz-adv-x="836" 
d="M326 1446v-262l-236 135l-90 -168l248 -133l-248 -133l107 -166l223 137v-258h188v258l215 -133l95 176l-219 119l231 129l-98 172l-224 -135v262h-192z" />
    <glyph glyph-name="comma" unicode="," horiz-adv-x="539" 
d="M-115 -307h358l312 668h-452z" />
    <glyph glyph-name="hyphen" unicode="-" horiz-adv-x="629" 
d="M8 357h613v387h-613v-387z" />
    <glyph glyph-name="period" unicode="." horiz-adv-x="539" 
d="M271 428c-47.333 0 -91.167 -10.166 -131.5 -30.499s-72.333 -48 -96 -83s-35.5 -73.5 -35.5 -115.5c0 -68.667 26 -122.834 78 -162.501s113 -59.5 183 -59.5c70.667 0 132 20 184 60c52 38.667 78 92.667 78 162c0 42 -12 80.667 -36 116
c-23.333 34.667 -55 62.167 -95 82.5s-83 30.5 -129 30.5z" />
    <glyph glyph-name="slash" unicode="/" horiz-adv-x="789" 
d="M-4 0h283l117 312l399 1038h-285l-123 -316z" />
    <glyph glyph-name="zero" unicode="0" horiz-adv-x="1295" 
d="M643 1383c-98 0 -186.168 -16.001 -264.501 -48.001s-145.166 -78.667 -200.499 -140s-97.5 -135.666 -126.5 -222.999s-43.5 -185.333 -43.5 -294c0 -107.333 14.833 -204.166 44.5 -290.499s72.834 -160.5 129.501 -222.5c56 -61.333 123 -108.333 201 -141
s164.667 -49 260 -49c97.333 0 185.666 16.5 264.999 49.5s147 80.667 203 143s98.5 138.166 127.5 227.499s43.5 189.333 43.5 300c0 104 -14.667 198.667 -44 284s-71.833 158 -127.5 218s-123 106 -202 138s-167.5 48 -265.5 48zM646.999 958.999
c52 0 91.668 -25.5 119.001 -76.5s41 -124.5 41 -220.5c0 -86.667 -13.667 -154.834 -41 -204.501s-65.333 -74.5 -114 -74.5c-54.667 0 -96.834 25.333 -126.501 76s-44.5 122.334 -44.5 215.001c0 90 14.667 160 44 210s70 75 122 75z" />
    <glyph glyph-name="one" unicode="1" horiz-adv-x="746" 
d="M695 1350v-1350h-486v926h-201v424h687z" />
    <glyph glyph-name="two" unicode="2" horiz-adv-x="1204" 
d="M-21 0l662.998 706.998c31.333 33.333 51.833 60.166 61.5 80.499s14.5 46.833 14.5 79.5c0 26.667 -7.16699 48.667 -21.5 66s-36.833 26 -67.5 26c-38 0 -66.5 -13 -85.5 -39s-31.5 -67 -37.5 -123h-465v4c0 88.667 13.833 169 41.5 241s67.334 132.833 119.001 182.5
s114.167 87.834 187.5 114.501s155.333 40 246 40c84.667 0 162 -11.667 232 -35c70.667 -23.333 131 -56.666 181 -99.999c50.667 -43.333 89.334 -95 116.001 -155s40 -126.667 40 -200c0 -75.333 -12 -140.666 -36 -195.999s-64 -107 -120 -155
c-57.333 -48.667 -135.333 -99 -234 -151h401v-387h-1236z" />
    <glyph glyph-name="three" unicode="3" horiz-adv-x="1204" 
d="M-8 488l481.002 -0.000976562c4.66699 -57.333 17.667 -98.333 39 -123s53.666 -37 96.999 -37c34.667 0 62 11.333 82 34c19.333 23.333 29 55 29 95c0 72 -44 108 -132 108h-57v283c60 0 101.333 7.83301 124 23.5s34 40.5 34 74.5c0 22 -7 39.667 -21 53
s-32.333 20 -55 20c-31.333 0 -53.833 -7.83301 -67.5 -23.5s-22.834 -42.834 -27.501 -81.501h-467c8 156 59 273.167 153 351.5s229 117.5 405 117.5c108 0 203.167 -16.167 285.5 -48.5s146 -77.666 191 -135.999s67.5 -125.166 67.5 -200.499c0 -134 -69 -227 -207 -279
c92 -26 158 -63.667 198 -113c40 -48.667 60 -114.667 60 -198c0 -64 -14 -123.333 -42 -178c-28 -54 -68.167 -100.667 -120.5 -140s-114.5 -69.666 -186.5 -90.999s-151.333 -32 -238 -32c-81.333 0 -158.5 9 -231.5 27s-137 44.333 -192 79s-97.5 75.334 -127.5 122.001
c-27.333 45.333 -46.5 89.166 -57.5 131.499s-16.5 96.166 -16.5 161.499z" />
    <glyph glyph-name="four" unicode="4" horiz-adv-x="1252" 
d="M-4 258h670v-258h436l1 258h159v373h-160v719h-563l-543 -735v-357zM455 631l203 328v-328h-203z" />
    <glyph glyph-name="five" unicode="5" 
d="M-17 68c120 -37.333 214.001 -63.0029 282.001 -77.0029c67.333 -13.333 138 -20 212 -20c95.333 0 183.333 12 264 36s150 57.833 208 101.5s102.833 95.834 134.5 156.501s47.5 128 47.5 202c0 64.667 -12.667 122.667 -38 174s-59.833 94.333 -103.5 129
s-93 60.834 -148 78.501s-111.5 26.5 -169.5 26.5c-62.667 0 -123.334 -10.333 -182.001 -31l8 119h553v387h-887l-121 -827c88 22 156.167 36.667 204.5 44s100.5 11 156.5 11c72 0 130.5 -10.167 175.5 -30.5s67.5 -47.166 67.5 -80.499
c0 -35.333 -18.5 -62.5 -55.5 -81.5s-87.167 -28.5 -150.5 -28.5c-45.333 0 -86.333 3.33301 -123 10s-75.5 18 -116.5 34s-97.167 41 -168.5 75z" />
    <glyph glyph-name="six" unicode="6" horiz-adv-x="1252" 
d="M742 963l124.994 8.00098c72.667 0 138.334 -19.667 197.001 -59s104.667 -93.666 138 -162.999s50 -146.333 50 -231c0 -80.667 -14.667 -155 -44 -223s-71.666 -126.333 -126.999 -175c-54.667 -49.333 -120 -87 -196 -113c-75.333 -26.667 -158.666 -40 -249.999 -40
c-123.333 0 -233.333 23.833 -330 71.5s-171.667 115.167 -225 202.5s-80 186.666 -80 297.999c0 57.333 4.83301 107.666 14.5 150.999s26.834 87.666 51.501 132.999s59.334 94.833 104.001 148.5s103.334 117.834 176.001 192.501l181 186h629zM630.994 686.001
c-49.333 0 -88 -16.668 -116 -50.001s-42 -72.666 -42 -117.999c0 -42.667 13.667 -80.334 41 -113.001c27.333 -32 65.666 -48 114.999 -48c46.667 0 83.167 16.333 109.5 49s39.5 71.334 39.5 116.001c0 45.333 -12.667 84 -38 116s-61.666 48 -108.999 48z" />
    <glyph glyph-name="seven" unicode="7" horiz-adv-x="1295" 
d="M0 0l576 934h-551v416h1272l-744 -1350h-553z" />
    <glyph glyph-name="eight" unicode="8" horiz-adv-x="1204" 
d="M951 703c76.667 22 132.001 54.8369 166.001 98.5039s51 102.167 51 175.5c0 78.667 -23.5 148.5 -70.5 209.5s-113.333 108.333 -199 142s-183.834 50.5 -294.501 50.5s-209 -17 -295 -51c-86 -33.333 -152.833 -80.833 -200.5 -142.5s-71.5 -132.5 -71.5 -212.5
c0 -70.667 19.667 -129.834 59 -177.501s94.666 -78.5 165.999 -92.5c-87.333 -16.667 -154.166 -52.334 -200.499 -107.001s-69.5 -125.667 -69.5 -213c0 -74.667 18.5 -139.334 55.5 -194.001s85.5 -98.334 145.5 -131.001s125.333 -56.667 196 -72s141 -23 211 -23
c126.667 0 236 17 328 51s162.5 83.333 211.5 148s73.5 141 73.5 229c0 160 -87.333 264 -262 312zM604.001 565.004c38.667 0 68.668 -12.501 90.001 -37.501s32 -55.5 32 -91.5s-11 -66.667 -33 -92c-21.333 -26 -51 -39 -89 -39c-40 0 -71.5 12.833 -94.5 38.5
s-34.5 55.834 -34.5 90.501c0 35.333 11.667 66 35 92s54.666 39 93.999 39zM609.002 1026c29.333 0 52 -9.33301 68 -28s24 -42 24 -70c0 -27.333 -9.16699 -51.5 -27.5 -72.5s-42.833 -31.5 -73.5 -31.5c-30 0 -53.333 9.33301 -70 28c-17.333 19.333 -26 42 -26 68
c0 28 9.5 52.667 28.5 74s44.5 32 76.5 32z" />
    <glyph glyph-name="nine" unicode="9" horiz-adv-x="1252" 
d="M107 0l419.999 376.999c-66.667 -8 -112 -12 -136 -12c-75.333 0 -143.166 19.333 -203.499 58s-107.333 93.167 -141 163.5s-50.5 150.833 -50.5 241.5c0 82.667 14.667 158.167 44 226.5s71.333 126.833 126 175.5c55.333 48 121.333 84.833 198 110.5
s162.334 38.5 257.001 38.5c96 0 183.333 -13.333 262 -40c79.333 -27.333 146.666 -66 201.999 -116c56 -50 98.833 -110.167 128.5 -180.5s44.5 -148.833 44.5 -235.5c0 -71.333 -9 -134.333 -27 -189s-49.167 -112.5 -93.5 -173.5s-109.5 -138.167 -195.5 -231.5
c-52 -51.333 -89 -88.666 -111 -111.999l-49.5 -53.5l-43.5 -47.5h-631zM630.999 970.999c-46.667 0 -83.167 -15.833 -109.5 -47.5s-39.5 -69.167 -39.5 -112.5c0 -42.667 13.333 -79.5 40 -110.5s63 -46.5 109 -46.5c46.667 0 82.5 15.333 107.5 46s37.5 67.667 37.5 111
c0 44 -12.667 81.667 -38 113s-61 47 -107 47z" />
    <glyph glyph-name="colon" unicode=":" horiz-adv-x="576" 
d="M314 428c-73.333 0 -135.167 -22.165 -185.5 -66.498s-75.5 -98.5 -75.5 -162.5c0 -68.667 26 -122.834 78 -162.501s113 -59.5 183 -59.5s130.5 19.667 181.5 59s76.5 93.666 76.5 162.999c0 64.667 -24.667 119 -74 163c-48.667 44 -110 66 -184 66zM317.999 963.002
c-48.667 0 -93.5 -10.167 -134.5 -30.5s-73 -48 -96 -83s-34.5 -74.5 -34.5 -118.5c0 -69.333 25.667 -123.5 77 -162.5s112 -58.5 182 -58.5s130.833 19.5 182.5 58.5s77.5 93.167 77.5 162.5c0 43.333 -11.167 82.833 -33.5 118.5s-53 63.5 -92 83.5s-81.833 30 -128.5 30
z" />
    <glyph glyph-name="semicolon" unicode=";" horiz-adv-x="576" 
d="M-111 -307h354l313 663h-457zM318 963c-48.667 0 -93.5 -10.165 -134.5 -30.498s-73 -48 -96 -83s-34.5 -74.5 -34.5 -118.5c0 -69.333 26 -123.5 78 -162.5s113 -58.5 183 -58.5c45.333 0 88 8.66699 128 26c40.667 17.333 73 42.666 97 75.999
c24.667 32.667 37 72.334 37 119.001c0 43.333 -11.333 82.666 -34 117.999s-54 63.166 -94 83.499s-83.333 30.5 -130 30.5z" />
    <glyph glyph-name="less" unicode="&#x3c;" horiz-adv-x="789" 
d="M-21 570l287 -424l187 141l-205 287l193 266l-175 133zM334 570l287 -420l186 137l-198 274l190 283l-174 129z" />
    <glyph glyph-name="greater" unicode="&#x3e;" horiz-adv-x="789" 
d="M-21 287l181 -137l295 420l-295 403l-177 -129l193 -283zM338 287l180 -141l289 424l-289 403l-168 -133l185 -266z" />
    <glyph glyph-name="question" unicode="?" horiz-adv-x="1082" 
d="M468 973c16 72.667 46.335 109.001 91.002 109.001c25.333 0 45 -8 59 -24s21 -37.333 21 -64c0 -84.667 -50.333 -127 -151 -127c-12.667 0 -45 3.33301 -97 10v-355c96 -9.33301 167 -14 213 -14c90.667 0 172 19.833 244 59.5s128.167 94.834 168.5 165.501
s60.5 150 60.5 238c0 73.333 -12.5 140.5 -37.5 201.5s-60.833 113.5 -107.5 157.5s-102.334 77.667 -167.001 101c-64.667 24 -136.667 36 -216 36c-104 0 -196.333 -20.333 -277 -61s-144.334 -98.334 -191.001 -173.001c-46 -74.667 -72 -161.334 -78 -260.001h465z
M545.002 428.001c-52.667 0 -99.332 -9.49805 -139.999 -28.498s-71.667 -45.833 -93 -80.5c-22.667 -34.667 -34 -74.667 -34 -120c0 -70.667 25.667 -125.334 77 -164.001c50 -40 110 -60 180 -60c45.333 0 88.666 9 129.999 27s74.666 44.167 99.999 78.5
s38 75.166 38 122.499c0 42.667 -11 81 -33 115c-22 34.667 -52.667 61.667 -92 81s-83.666 29 -132.999 29z" />
    <glyph glyph-name="A" unicode="A" horiz-adv-x="1411" 
d="M-21 0l457 1350h535l469 -1350h-505l-54 174h-354l-45 -174h-503zM604 500h199l-96 377z" />
    <glyph glyph-name="B" unicode="B" horiz-adv-x="1164" 
d="M25 0l0.000976562 1350h657c90.667 0 168.667 -15 234 -45c66 -29.333 116.333 -72 151 -128s52 -121.333 52 -196c0 -78 -16.667 -138.667 -50 -182c-33.333 -42.667 -89.333 -77.334 -168 -104.001c66.667 -16.667 120 -38.667 160 -66
c39.333 -26.667 68.666 -60.334 87.999 -101.001c18 -41.333 27 -91.666 27 -150.999c0 -79.333 -17.167 -147.166 -51.5 -203.499s-84.333 -99.333 -150 -129s-144.5 -44.5 -236.5 -44.5h-713zM490.001 332h86c51.333 0 88 8 110 24c20.667 16 31 42.667 31 80
c0 71.333 -48.333 107 -145 107h-82v-211zM490.001 840c54.667 0 90.667 1.83398 108 5.50098s30 8.5 38 14.5c20 12.667 30 34.667 30 66c0 36 -9 61 -27 75c-12 9.33301 -27.167 15.166 -45.5 17.499s-52.833 3.5 -103.5 3.5v-182z" />
    <glyph glyph-name="C" unicode="C" horiz-adv-x="1045" 
d="M1028 535c-60 -46 -108.498 -77.334 -145.498 -94.001s-79.167 -25 -126.5 -25c-74 0 -135.333 25 -184 75c-50 49.333 -75 111.666 -75 186.999c0 47.333 11.833 91 35.5 131s55.667 71.5 96 94.5s84.166 34.5 131.499 34.5c45.333 0 86.5 -9.33301 123.5 -28
s85.167 -53 144.5 -103v508c-94 29.333 -160.333 48 -199 56s-83.334 12 -134.001 12c-130 0 -247.833 -31.333 -353.5 -94s-188.5 -149 -248.5 -259c-60 -109.333 -90 -230.666 -90 -363.999c0 -132.667 29.667 -252 89 -358
c58.667 -105.333 140.334 -187.833 245.001 -247.5s222.334 -89.5 353.001 -89.5c57.333 0 106.166 3.83301 146.499 11.5s104.166 25.834 191.499 54.501v498z" />
    <glyph glyph-name="D" unicode="D" horiz-adv-x="1333" 
d="M41 0v1350h555c112 0 212.667 -15.333 302 -46c89.333 -32 165.333 -77.833 228 -137.5s110.167 -131.667 142.5 -216s48.5 -179.166 48.5 -284.499c0 -101.333 -15.5 -193 -46.5 -275s-75.667 -152.167 -134 -210.5s-128.5 -103 -210.5 -134s-173.333 -46.5 -274 -46.5
h-611zM531 415.999h86c61.333 0 111.666 23.667 150.999 71s59 108.333 59 183c0 76.667 -22.333 138 -67 184c-28.667 29.333 -58.667 48 -90 56s-77.666 12 -138.999 12v-506z" />
    <glyph glyph-name="E" unicode="E" horiz-adv-x="957" 
d="M37 0v1350h893v-365h-403v-133h362v-344h-362v-143h415v-365h-905z" />
    <glyph glyph-name="F" unicode="F" horiz-adv-x="914" 
d="M28 0v1350h877v-387h-387v-123h336v-360l-344 -1v-479h-482z" />
    <glyph glyph-name="G" unicode="G" horiz-adv-x="1411" 
d="M1420 803c0 -70.667 -0.666992 -123.671 -2 -159.004c-2 -35.333 -3.83301 -59 -5.5 -71s-3.16699 -20.667 -4.5 -26c-8 -54.667 -19.167 -105.667 -33.5 -153s-30.833 -87 -49.5 -119c-36.667 -61.333 -86.667 -115.333 -150 -162s-135.333 -82.667 -216 -108
c-80 -25.333 -162.667 -38 -248 -38c-106 0 -203 16.5 -291 49.5s-164.167 80.667 -228.5 143s-113.666 136.833 -147.999 223.5s-51.5 182.334 -51.5 287.001c0 103.333 17.667 198.833 53 286.5s86 163.5 152 227.5s144.167 113.167 234.5 147.5s189.5 51.5 297.5 51.5
c88.667 0 172 -13.5 250 -40.5s149.5 -65.5 214.5 -115.5s124.5 -111.333 178.5 -184l-438 -178c-42.667 40.667 -77.834 67.834 -105.501 81.501s-59.5 20.5 -95.5 20.5c-52 0 -96.5 -14.333 -133.5 -43s-64.5 -66 -82.5 -112c-19.333 -46.667 -29 -96 -29 -148
c0 -51.333 9.16699 -99.666 27.5 -144.999s45.5 -81.666 81.5 -108.999c36.667 -27.333 80.667 -41 132 -41c54 0 101 12 141 36s64 55.333 72 94h-243v304h721z" />
    <glyph glyph-name="H" unicode="H" horiz-adv-x="1295" 
d="M37 0v1350h481v-451h258v451h482v-1350h-482v475h-258v-475h-481z" />
    <glyph glyph-name="I" unicode="I" horiz-adv-x="539" 
d="M28 0v1350h482v-1350h-482z" />
    <glyph glyph-name="J" unicode="J" horiz-adv-x="875" 
d="M-9 129c46.667 -36.667 90.333 -66 131 -88c40.667 -21.333 81.667 -37 123 -47s86 -15 134 -15c90.667 0 172 18.833 244 56.5s128.167 90.167 168.5 157.5s60.5 143 60.5 227v930h-487v-815c0 -44 -6.66699 -76.333 -20 -97c-12.667 -20 -34.667 -30 -66 -30
c-22 0 -41.667 4.33301 -59 13s-42 26.667 -74 54z" />
    <glyph glyph-name="K" unicode="K" horiz-adv-x="1411" 
d="M41 0v1350h481v-569l281 569h543l-391 -660l456 -690h-579l-310 574v-574h-481z" />
    <glyph glyph-name="L" unicode="L" horiz-adv-x="914" 
d="M28 0v1350h482v-897h400v-453h-882z" />
    <glyph glyph-name="M" unicode="M" horiz-adv-x="1792" 
d="M-9 0l198 1350h528l176 -676l176 676h514l213 -1350h-483l-74 717l-188 -717h-318l-188 719l-72 -719h-482z" />
    <glyph glyph-name="N" unicode="N" horiz-adv-x="1411" 
d="M20 0v1350h507l378 -676v676h482v-1350h-489l-396 707v-707h-482z" />
    <glyph glyph-name="O" unicode="O" horiz-adv-x="1463" 
d="M729 1383c-142.667 0 -269.336 -29.833 -380.003 -89.5s-196.5 -143.5 -257.5 -251.5s-91.5 -230.667 -91.5 -368c0 -102.667 17.5 -197.334 52.5 -284.001s85 -161.667 150 -225s141.833 -112.166 230.5 -146.499s184.667 -51.5 288 -51.5c110 0 211 17 303 51
s170.667 82.333 236 145s115.5 137.834 150.5 225.501s52.5 184.167 52.5 289.5c0 103.333 -17.667 198.166 -53 284.499s-85.666 161 -150.999 224s-143.166 111.5 -233.499 145.5s-189.166 51 -296.499 51zM728.998 922c70.667 0 126 -25.002 166 -75.002
c40 -49.333 60 -107.666 60 -174.999c0 -68 -20 -127 -60 -177s-95.333 -75 -166 -75c-68.667 0 -122 24.833 -160 74.5s-57 108.834 -57 177.501c0 42.667 8.33301 83 25 121c16 38.667 40.667 69.667 74 93c32.667 24 72 36 118 36z" />
    <glyph glyph-name="P" unicode="P" horiz-adv-x="1164" 
d="M24 0l-0.000976562 1350h642c109.333 0 202 -19 278 -57c76.667 -38 134.334 -94 173.001 -168c39.333 -74 59 -163.667 59 -269c0 -304 -142 -456 -426 -456h-244v-400h-482zM517.999 752h78c36 0 63.833 10.667 83.5 32s29.5 47.333 29.5 78c0 31.333 -11 59 -33 83
s-51.333 36 -88 36h-70v-229z" />
    <glyph glyph-name="Q" unicode="Q" horiz-adv-x="1463" 
d="M1180 -103l-110.997 144.003c-90.667 -33.333 -154.334 -54 -191.001 -62s-85 -12 -145 -12c-106.667 0 -205.167 16.833 -295.5 50.5s-168.5 81.667 -234.5 144s-116.5 136.166 -151.5 221.499s-52.5 179.666 -52.5 282.999c0 140 30.667 264.667 92 374
s147.666 193.666 258.999 252.999c111.333 60 239 90 383 90c108.667 0 208.167 -17.167 298.5 -51.5s167.666 -82.833 231.999 -145.5s113.833 -138 148.5 -226c35.333 -88 53 -184.667 53 -290c0 -82 -7.83301 -150.833 -23.5 -206.5s-44.167 -113.167 -85.5 -172.5
l193 -227zM781.003 428.003l-137.999 120.998l308 74c4 18.667 6 38.334 6 59.001c0 38.667 -10.333 76.834 -31 114.501s-48.334 68 -83.001 91s-71.334 34.5 -110.001 34.5c-45.333 0 -85.166 -12 -119.499 -36s-60.5 -55.5 -78.5 -94.5s-27 -79.5 -27 -121.5
c0 -88.667 32 -155 96 -199c38 -30.667 82.667 -46 134 -46c10.667 0 25 1 43 3z" />
    <glyph glyph-name="R" unicode="R" horiz-adv-x="1295" 
d="M37 0l-0.00195312 1350h670c72 0 137.833 -10.833 197.5 -32.5s110.834 -52.834 153.501 -93.501s75 -89 97 -145s33 -118.667 33 -188c0 -90 -18.667 -162.833 -56 -218.5s-97.666 -100.167 -180.999 -133.5l350 -539h-563l-220 436v-436h-481zM526.998 752.001
c59.333 0 103.667 6.33398 133 19.001c20 9.33301 33.667 21.666 41 36.999s11 34.333 11 57c0 45.333 -14.333 76.333 -43 93c-26.667 15.333 -74 23 -142 23v-229z" />
    <glyph glyph-name="S" unicode="S" horiz-adv-x="1082" 
d="M-13 123c112.667 -58.667 206.997 -98.3359 282.997 -119.003c75.333 -22 158 -33 248 -33c84.667 0 162 12 232 36c70 22.667 130.333 56 181 100c51.333 43.333 90.666 95.666 117.999 156.999s41 129 41 203c0 114.667 -35.667 204 -107 268
c-26 30.667 -55.167 52.834 -87.5 66.501s-95.166 31.834 -188.499 54.501c-56 15.333 -94.667 28.5 -116 39.5s-32 23.833 -32 38.5c0 21.333 11.333 39.333 34 54s49.667 22 81 22c81.333 0 165.333 -35.667 252 -107l148 332c-86.667 56 -161 94.667 -223 116
s-134 32 -216 32c-109.333 0 -207.666 -21 -294.999 -63s-155.666 -100.5 -204.999 -175.5s-74 -160.167 -74 -255.5c0 -89.333 26.5 -167.166 79.5 -233.499s122.833 -109.166 209.5 -128.499l148 -35c49.333 -12 74 -34.667 74 -68c0 -16.667 -8 -30.667 -24 -42
s-38 -17 -66 -17c-52 0 -102.167 10 -150.5 30s-108.166 56.333 -179.499 109z" />
    <glyph glyph-name="T" unicode="T" horiz-adv-x="996" 
d="M742 912h262v438h-1012v-438h266v-912h484v912z" />
    <glyph glyph-name="U" unicode="U" horiz-adv-x="1295" 
d="M1270 1350h-481.001v-772c0 -56.667 -12.333 -100.667 -37 -132c-24.667 -30.667 -59.667 -46 -105 -46c-46 0 -81.667 15.667 -107 47c-25.333 32 -38 75.667 -38 131v772h-481v-811c0 -140.667 21.667 -246.667 65 -318c50 -82.667 122.5 -145.667 217.5 -189
s209.5 -65 343.5 -65c86 0 164 9 234 27c70 18.667 131 45.667 183 81c52.667 35.333 94.834 78.5 126.501 129.5s52.167 108.5 61.5 172.5c12 78 18 132 18 162v811z" />
    <glyph glyph-name="V" unicode="V" horiz-adv-x="1372" 
d="M-17 1350h531l185 -719l176 719h512l-453 -1350h-465z" />
    <glyph glyph-name="W" unicode="W" horiz-adv-x="2040" 
d="M-9 1350h515l152 -768l149 768h432l152 -768l155 768h502l-405 -1350h-459l-164 666l-141 -666h-463z" />
    <glyph glyph-name="X" unicode="X" horiz-adv-x="1463" 
d="M-8 0h551l190 391l185 -391h551l-444 719l395 631h-553l-134 -303l-133 303h-553l406 -633z" />
    <glyph glyph-name="Y" unicode="Y" horiz-adv-x="1333" 
d="M-13 1350l429 -768v-582h477v578l453 772h-543l-141 -356l-127 356h-548z" />
    <glyph glyph-name="Z" unicode="Z" horiz-adv-x="1252" 
d="M-9 0l562 942h-464l1 408h1192l-561 -934h518v-416h-1248z" />
    <glyph glyph-name="bracketleft" unicode="[" horiz-adv-x="629" 
d="M32 -357h599v183h-228v301v1037h228v186h-599v-672v-1035z" />
    <glyph glyph-name="bracketright" unicode="]" horiz-adv-x="629" 
d="M-9 -357h609v669v1038h-609v-186h232v-304v-1034h-232v-183z" />
    <glyph glyph-name="underscore" unicode="_" horiz-adv-x="789" 
d="M-8 -238v-53h807v53h-807z" />
    <glyph glyph-name="grave" unicode="`" horiz-adv-x="209" 
d="M-365 1379l279 -324h238l-115 324h-402z" />
    <glyph glyph-name="a" unicode="a" horiz-adv-x="1164" 
d="M678 0l463 -0.000976562v959h-467v-94c-68 74.667 -154 112 -258 112c-88.667 0 -165 -24 -229 -72c-63.333 -48 -111.333 -111 -144 -189s-49 -160.333 -49 -247c0 -84 15.5 -163.667 46.5 -239s77.5 -135.666 139.5 -180.999c62 -46.667 136.667 -70 224 -70
c60 0 110 8.83301 150 26.5s81.333 49.5 124 95.5v-101zM563 605.999c36.667 0 65 -12.334 85 -37.001c20.667 -25.333 31 -55.333 31 -90c0 -36 -10.667 -66.667 -32 -92c-20.667 -26 -50 -39 -88 -39c-35.333 0 -62.5 12.667 -81.5 38s-28.5 55 -28.5 89
c0 34.667 10 65.334 30 92.001c20.667 26 48.667 39 84 39z" />
    <glyph glyph-name="b" unicode="b" horiz-adv-x="1164" 
d="M33 0v1450h457v-577c69.333 69.333 153.333 104 252 104c87.333 0 162.166 -23.833 224.499 -71.5s109.333 -110.167 141 -187.5s47.5 -159 47.5 -245c0 -84.667 -15.333 -164.834 -46 -240.501s-76.667 -136.834 -138 -183.501s-135 -70 -221 -70
c-55.333 0 -103.666 9.66699 -144.999 29c-41.333 18 -82.333 49 -123 93v-101h-449zM600 598.002c-35.333 0 -63.667 -12.668 -85 -38.001c-20.667 -26 -31 -55.667 -31 -89s9.83301 -62.166 29.5 -86.499s47.167 -36.5 82.5 -36.5c36 0 64.333 13 85 39
c21.333 26 32 56 32 90c0 32.667 -10 61 -30 85c-19.333 24 -47 36 -83 36z" />
    <glyph glyph-name="c" unicode="c" horiz-adv-x="789" 
d="M776 412c-50 -50.667 -105.665 -75.999 -166.998 -75.999c-42.667 0 -76 13.5 -100 40.5s-36 59.167 -36 96.5c0 39.333 13 73.333 39 102c25.333 29.333 60.333 44 105 44c26.667 0 50.5 -5 71.5 -15s50.167 -30.333 87.5 -61l-8 395c-112 31.333 -204.667 47 -278 47
c-68 0 -131.833 -13.833 -191.5 -41.5s-111.334 -65.834 -155.001 -114.501s-77.334 -104 -101.001 -166s-35.5 -127.333 -35.5 -196c0 -98 20.167 -184.5 60.5 -259.5s96.833 -132.833 169.5 -173.5c72.667 -42 155.667 -63 249 -63c78 0 172 15.333 282 46z" />
    <glyph glyph-name="d" unicode="d" horiz-adv-x="1164" 
d="M678 0l-0.00195312 100.998c-42.667 -46 -83.667 -77.833 -123 -95.5s-88.333 -26.5 -147 -26.5c-86 0 -159.667 23.333 -221 70s-107.5 107.834 -138.5 183.501s-46.5 155.834 -46.5 240.501c0 86 16 167.667 48 245c32 78 79.333 140.667 142 188
s137.334 71 224.001 71c50.667 0 94.334 -7.33301 131.001 -22s79 -42 127 -82v577h457v-1450h-453zM562.998 597.998c-35.333 0 -63.333 -12.334 -84 -37.001c-20 -25.333 -30 -54.666 -30 -87.999c0 -34 10 -63.333 30 -88s48 -37 84 -37c36.667 0 64.667 12.167 84 36.5
s29 53.833 29 88.5c0 34 -9.83301 63.333 -29.5 88s-47.5 37 -83.5 37z" />
    <glyph glyph-name="e" unicode="e" 
d="M647 320l454.999 0.00292969c-12 -66.667 -43.333 -126.334 -94 -179.001c-50 -52.667 -114 -94.334 -192 -125.001c-78.667 -30 -163 -45 -253 -45c-86 0 -163.167 11.333 -231.5 34s-127.166 55.667 -176.499 99c-49.333 44 -86.666 96.333 -111.999 157
c-26 61.333 -39 130 -39 206c0 78 13.167 149.167 39.5 213.5s64.166 119.166 113.499 164.499s108.833 80 178.5 104s147.167 36 232.5 36c108.667 0 205 -22.333 289 -67c84.667 -44.667 150 -108 196 -190c30.667 -53.333 50 -103.5 58 -150.5s12 -107.833 12 -182.5
h-654c0 -48 7 -84.167 21 -108.5s37 -36.5 69 -36.5c42.667 0 72 23.333 88 70zM476.999 594.003h189c-8 77.333 -39.333 116 -94 116h-2c-53.333 0 -84.333 -38.667 -93 -116z" />
    <glyph glyph-name="f" unicode="f" horiz-adv-x="746" 
d="M8 586l0.000976562 373h125v88c0 132 21.333 227.667 64 287c70.667 95.333 182.667 143 336 143c73.333 0 141.666 -9 204.999 -27v-360c-24 10.667 -44 16 -60 16c-25.333 0 -45.333 -10.667 -60 -32c-9.33301 -13.333 -15.333 -27.833 -18 -43.5s-4 -39.5 -4 -71.5
h142v-373h-146v-586h-459v586h-125z" />
    <glyph glyph-name="g" unicode="g" horiz-adv-x="1164" 
d="M43 -332c96 -33.333 175.668 -56.333 239.001 -69s131.333 -19 204 -19c99.333 0 189.166 12.5 269.499 37.5s148.833 61.167 205.5 108.5s100.167 104.5 130.5 171.5s45.5 142.167 45.5 225.5v836h-459v-94c-43.333 43.333 -83 72.833 -119 88.5s-79.667 23.5 -131 23.5
c-82.667 0 -156 -20.333 -220 -61c-63.333 -40.667 -112.5 -98.167 -147.5 -172.5s-52.5 -159.5 -52.5 -255.5c0 -72.667 10.167 -139.334 30.5 -200.001s49.5 -112.667 87.5 -156c38.667 -44 84.667 -77.667 138 -101s112.333 -35 177 -35c51.333 0 94.5 8.33301 129.5 25
s71.167 45.334 108.5 86.001c-6.66699 -80 -26.5 -137.667 -59.5 -173s-85.833 -53 -158.5 -53c-49.333 0 -96.666 7.66699 -141.999 23c-44.667 15.333 -100.334 43 -167.001 83zM580.001 606c32.667 0 57.998 -11.1689 75.998 -33.502s27 -49.166 27 -80.499
c0 -34 -9.66699 -63 -29 -87s-46.666 -36 -81.999 -36c-32 0 -57 11 -75 33c-18.667 22.667 -28 49.334 -28 80.001c0 31.333 10.333 59.833 31 85.5s47.334 38.5 80.001 38.5z" />
    <glyph glyph-name="h" unicode="h" 
d="M37 0l-0.000976562 1450h457v-618c51.333 57.333 96.333 96.5 135 117.5s86.334 31.5 143.001 31.5c65.333 0 122.333 -13.333 171 -40s86 -65.5 112 -116.5s39 -112.167 39 -183.5v-641h-458l-1 488c0 76 -24 114 -72 114c-46 0 -69 -41 -69 -123v-479h-457z" />
    <glyph glyph-name="i" unicode="i" horiz-adv-x="539" 
d="M279 1479c-74.667 0 -136.5 -22.167 -185.5 -66.5s-73.5 -99.5 -73.5 -165.5c0 -47.333 12 -88 36 -122s55.5 -59.667 94.5 -77s79.833 -26 122.5 -26c68.667 0 128 20 178 60c50.667 39.333 76 94.333 76 165c0 68 -23.167 123.667 -69.5 167s-105.833 65 -178.5 65z
M47 0h456l-1 959h-455v-959z" />
    <glyph glyph-name="j" unicode="j" horiz-adv-x="539" 
d="M283 1489c46 0 88 -10 126 -30s67.833 -47.833 89.5 -83.5s32.5 -75.5 32.5 -119.5c0 -70.667 -25 -126 -75 -166s-109 -60 -177 -60c-44 0 -85.833 8.83301 -125.5 26.5s-71.5 44.167 -95.5 79.5c-25.333 34.667 -38 76 -38 124c0 65.333 25.167 119.833 75.5 163.5
s112.833 65.5 187.5 65.5zM43 -383v1342h455v-1342h-455z" />
    <glyph glyph-name="k" unicode="k" horiz-adv-x="1204" 
d="M20 0v1450h457v-848l175 357h540l-334 -459l365 -500h-557l-189 357v-357h-457z" />
    <glyph glyph-name="l" unicode="l" horiz-adv-x="539" 
d="M41 0v1450h457v-1450h-457z" />
    <glyph glyph-name="m" unicode="m" horiz-adv-x="1624" 
d="M20 0l-0.00292969 959h445v-119c40 40 70.833 68.833 92.5 86.5s45.167 30.834 70.5 39.501s58.333 13 99 13c50.667 0 100.334 -12.333 149.001 -37s91.334 -60 128.001 -106c46.667 54.667 89.667 92.667 129 114c40 20.667 89.667 31 149 31
c68.667 0 127.834 -14.333 177.501 -43s87.5 -70.334 113.5 -125.001s39 -120.667 39 -198v-615h-445v496c0 65.333 -17.667 98 -53 98c-26 0 -44 -8 -54 -24s-15 -42 -15 -78v-492h-440l-1 488c0 33.333 -4.66699 57.333 -14 72s-25 22 -47 22c-44 0 -66 -32.667 -66 -98
v-484h-457z" />
    <glyph glyph-name="n" unicode="n" 
d="M37 0l455.999 -0.00195312v484c0 78.667 23.333 118 70 118c48 0 72 -38 72 -114v-488h459v615c0 88.667 -16.333 162.334 -49 221.001c-59.333 98 -146.666 147 -261.999 147c-57.333 0 -113.333 -13.167 -168 -39.5s-100.667 -62.166 -138 -107.499v123h-440v-959z" />
    <glyph glyph-name="o" unicode="o" 
d="M559 989c-83.333 0 -159.335 -11.999 -228.002 -35.999s-127.667 -58.833 -177 -104.5s-87.333 -100.167 -114 -163.5s-40 -133.333 -40 -210c0 -74.667 13.333 -143.667 40 -207c26.667 -62.667 64.667 -116.334 114 -161.001s108.333 -79.167 177 -103.5
s143.334 -36.5 224.001 -36.5c111.333 0 210 21.167 296 63.5s152.833 102.5 200.5 180.5s71.5 167.333 71.5 268c0 100 -23.667 188.667 -71 266c-47.333 78 -113.666 138.167 -198.999 180.5s-183.333 63.5 -294 63.5zM554.998 606.001
c37.333 0 66.167 -12.668 86.5 -38.001s30.5 -55.666 30.5 -90.999c0 -36 -9.66699 -66.5 -29 -91.5s-47.333 -37.5 -84 -37.5c-34.667 0 -61.667 13.167 -81 39.5s-29 56.833 -29 91.5c0 34 9.33301 63.667 28 89s44.667 38 78 38z" />
    <glyph glyph-name="p" unicode="p" horiz-adv-x="1164" 
d="M33 -387l-0.000976562 1346h457v-103c50.667 47.333 94.334 79.333 131.001 96c37.333 16.667 82.333 25 135 25c86 0 159.333 -23 220 -69c61.333 -46 107.166 -106.5 137.499 -181.5s45.5 -154.5 45.5 -238.5c0 -64.667 -8.66699 -127.167 -26 -187.5
s-43.666 -114.833 -78.999 -163.5s-79 -87.167 -131 -115.5s-111 -42.5 -177 -42.5c-48 0 -89.167 7.66699 -123.5 23s-78.5 45.333 -132.5 90v-479h-457zM603.999 606c-35.333 0 -63.667 -12.335 -85 -37.002c-20.667 -25.333 -31 -53.666 -31 -84.999
c0 -33.333 10.167 -62.166 30.5 -86.499s48.833 -36.5 85.5 -36.5c36 0 63.833 12 83.5 36s29.5 53 29.5 87c0 32 -10 60.333 -30 85s-47.667 37 -83 37z" />
    <glyph glyph-name="q" unicode="q" horiz-adv-x="1164" 
d="M674 -387l-0.000976562 475c-70.667 -72.667 -154 -109 -250 -109c-60.667 0 -117 12.333 -169 37s-96.667 59.167 -134 103.5s-66.166 97.666 -86.499 159.999s-30.5 130.5 -30.5 204.5c0 94.667 17.333 179.334 52 254.001c34 75.333 81.667 134 143 176s131 63 209 63
c116 0 206 -40.333 270 -121v103h453v-1346h-457zM562.999 606c-35.333 0 -63.333 -12.334 -84 -37.001c-20 -25.333 -30 -54.333 -30 -87c0 -34 10 -63.333 30 -88s48 -37 84 -37c36.667 0 64.667 12 84 36c19.333 24.667 29 54.334 29 89.001
c0 33.333 -9.83301 62.333 -29.5 87s-47.5 37 -83.5 37z" />
    <glyph glyph-name="r" unicode="r" horiz-adv-x="789" 
d="M33 0l457.001 -0.000976562v357c0 70.667 19.333 119.334 58 146.001c39.333 26.667 92.333 40 159 40c20.667 0 50 -1.33301 88 -4v428c-85.333 0 -149.333 -9.16699 -192 -27.5s-80.334 -52.833 -113.001 -103.5v123h-457v-959z" />
    <glyph glyph-name="s" unicode="s" horiz-adv-x="875" 
d="M-8 76l119.005 304.999c99.333 -76.667 179 -115 239 -115c26 0 45.5 5.33301 58.5 16s19.5 22 19.5 34c0 16 -10.5 27.833 -31.5 35.5s-52.833 13.5 -95.5 17.5c-87.333 13.333 -151.5 41.833 -192.5 85.5s-61.5 105.834 -61.5 186.501c0 68 18.667 128 56 180
c37.333 52.667 90.166 93.167 158.499 121.5s147.166 42.5 236.499 42.5c112 0 230.333 -27.333 355 -82l-111 -284c-30 24 -63.333 44 -100 60s-69 24 -97 24c-23.333 0 -40.333 -4 -51 -12s-16 -16.333 -16 -25c0 -30.667 39.667 -52 119 -64
c96 -16 166.333 -46.5 211 -91.5s67 -108.5 67 -190.5c0 -68.667 -19.333 -129.5 -58 -182.5s-93.334 -94 -164.001 -123s-152.334 -43.5 -245.001 -43.5c-132.667 0 -271.334 35 -416.001 105z" />
    <glyph glyph-name="t" unicode="t" horiz-adv-x="707" 
d="M-8 586h119v-586h452l1 586h147v373h-148v301h-452v-301h-119v-373z" />
    <glyph glyph-name="u" unicode="u" 
d="M1094 959l-459.001 0.000976562v-498c0 -40.667 -5.5 -70.334 -16.5 -89.001s-30.833 -28 -59.5 -28c-44 0 -66 39 -66 117v498h-456v-527c0 -74.667 11.667 -140.667 35 -198c22.667 -56.667 56.334 -104.667 101.001 -144c44.667 -38.667 99.5 -68.167 164.5 -88.5
s140.167 -30.5 225.5 -30.5c112 0 207.667 18 287 54c80 34.667 140.667 86.5 182 155.5s62 152.833 62 251.5v527z" />
    <glyph glyph-name="v" unicode="v" horiz-adv-x="1164" 
d="M0 959l379 -959h414l375 959h-461l-119 -449l-127 449h-461z" />
    <glyph glyph-name="w" unicode="w" horiz-adv-x="1669" 
d="M-1 959l327 -959h395l115 373l110 -373h392l331 959h-460l-107 -416l-115 416h-309l-115 -420l-102 420h-462z" />
    <glyph glyph-name="x" unicode="x" horiz-adv-x="1295" 
d="M-8 0h561l99 191l90 -191h563l-366 496l336 463h-537l-86 -191l-93 191h-530l336 -467z" />
    <glyph glyph-name="y" unicode="y" horiz-adv-x="1204" 
d="M-4 959h477l136 -437l129 437h475l-578 -1346h-485l229 459z" />
    <glyph glyph-name="z" unicode="z" horiz-adv-x="1045" 
d="M-13 0h1021v369h-326l375 590h-1000v-377h299z" />
    <glyph glyph-name="nonbreakingspace" unicode="&#xa0;" horiz-adv-x="209" 
 />
    <glyph glyph-name="exclamdown" unicode="&#xa1;" horiz-adv-x="629" 
d="M275 1463c-72 0 -133.167 -22.6689 -183.5 -68.002s-75.5 -100 -75.5 -164c0 -71.333 27 -127.666 81 -168.999c52.667 -41.333 114.667 -62 186 -62c44.667 0 87 8.66699 127 26c40.667 16.667 73.334 42.334 98.001 77.001s37 76 37 124c0 68 -25.333 124.333 -76 169
s-115.334 67 -194.001 67zM47 -0.00195312h463v914h-463v-914z" />
    <glyph glyph-name="cent" unicode="&#xa2;" horiz-adv-x="789" 
d="M357 -195h215.002v174c36 0 66 2.5 90 7.5s56.667 15.167 98 30.5l12 391c-58.667 -50.667 -116 -76 -172 -76c-40 0 -71.833 14.333 -95.5 43s-35.5 62 -35.5 100c0 39.333 12.667 73.666 38 102.999c24.667 30 58.667 45 102 45c24.667 0 48.667 -5.66699 72 -17
s53.666 -32.333 90.999 -63l-12 395c-38.667 16 -69.167 26 -91.5 30s-54.5 7 -96.5 9v178h-215v-192c-114.667 -36 -202.334 -95.5 -263.001 -178.5s-91 -186.167 -91 -309.5c0 -87.333 13.5 -164.166 40.5 -230.499s67.167 -120.833 120.5 -163.5
c52.667 -42 117 -71.667 193 -89v-187z" />
    <glyph glyph-name="sterling" unicode="&#xa3;" horiz-adv-x="1164" 
d="M133 -37c84.667 34.667 144.671 57.3359 180.004 68.0029c36 10.667 67.667 16 95 16c26 0 52 -2.66699 78 -8s60 -13.333 102 -24c41.333 -12 73.666 -20.333 96.999 -25s48.333 -7 75 -7c43.333 0 86.166 6.66699 128.499 20s86.833 34.5 133.5 63.5
s98 67.833 154 116.5l-215 258c-74 -74.667 -157.333 -112 -250 -112c-48.667 0 -107.334 10.667 -176.001 32c12 36.667 20 85.667 24 147h174v190h-206c-33.333 62.667 -55.333 107 -66 133s-16 50 -16 72c0 48 17.333 87.667 52 119c35.333 31.333 79.333 47 132 47
c73.333 0 152.666 -53.667 237.999 -161l283 202c-74 83.333 -118.333 132 -133 146c-50 51.333 -110 90.666 -180 117.999s-142.667 41 -218 41c-90 0 -175.333 -18.167 -256 -54.5s-145.667 -89.833 -195 -160.5s-74 -153.667 -74 -249
c0 -44.667 4.33301 -84.334 13 -119.001s24.667 -79.334 48 -134.001h-131v-190h199c0 -67.333 -7.66699 -115 -23 -143c-87.333 -34.667 -158.333 -69 -213 -103z" />
    <glyph glyph-name="section" unicode="&#xa7;" 
d="M61 37c5.33301 -83.333 29.5029 -156.665 72.5029 -219.998s101.5 -112.333 175.5 -147c74 -34 158.667 -51 254 -51c73.333 0 140.5 9.33301 201.5 28s113.833 45 158.5 79c44 34.667 78 75.167 102 121.5s36 97.166 36 152.499c0 56 -7.66699 101.667 -23 137
s-43 71.666 -83 108.999c56.667 38 97.334 78.167 122.001 120.5s37 95.833 37 160.5c0 100 -37.333 181.333 -112 244c-74 62.667 -182 102.667 -324 120c-78.667 10.667 -134.667 24.667 -168 42c-32.667 17.333 -49 41.666 -49 72.999c0 25.333 10.5 47.666 31.5 66.999
s46.167 29 75.5 29c36.667 0 64.167 -10 82.5 -30s31.5 -53.667 39.5 -101h375c-4.66699 81.333 -28.667 153.333 -72 216c-42.667 62 -101.334 110.167 -176.001 144.5s-159.334 51.5 -254.001 51.5c-92.667 0 -177.667 -16.5 -255 -49.5s-138.5 -78.333 -183.5 -136
s-67.5 -121.5 -67.5 -191.5c0 -107.333 50.667 -193.333 152 -258c-46.667 -16.667 -84.334 -37.667 -113.001 -63s-49.834 -56 -63.501 -92s-20.5 -78 -20.5 -126c0 -92.667 30.667 -167.667 92 -225c62 -58 150.333 -94.333 265 -109c18 -4 48 -8.33301 90 -13
c42.667 -5.33301 74.667 -9.66602 96 -12.999c22 -4 42.667 -10.333 62 -19c38 -25.333 57 -59.666 57 -102.999c0 -24 -8 -43.667 -24 -59s-40.667 -23 -74 -23c-40 0 -69.833 10.5 -89.5 31.5s-32.167 55.167 -37.5 102.5h-388zM555.003 635.001
c38 0 67.334 -12.668 88.001 -38.001s31 -55.666 31 -90.999c0 -36 -10.167 -66.5 -30.5 -91.5s-49.833 -37.5 -88.5 -37.5c-36.667 0 -65.334 12.5 -86.001 37.5s-31 54.833 -31 89.5c0 35.333 10.5 66 31.5 92s49.5 39 85.5 39z" />
    <glyph glyph-name="dieresis" unicode="&#xa8;" horiz-adv-x="209" 
d="M-185 1397c-36.667 0 -67.667 -8.33398 -93 -25.001s-44.5 -38.5 -57.5 -65.5s-19.5 -56.167 -19.5 -87.5c0 -49.333 14.833 -91.666 44.5 -126.999s71.5 -53 125.5 -53c54.667 0 97 17.333 127 52c30.667 34.667 46 76.667 46 126c0 48.667 -15.333 91 -46 127
c-30 35.333 -72.333 53 -127 53zM244 1397c-54 0 -96.667 -17.667 -128 -53c-30.667 -35.333 -46 -77 -46 -125c0 -48.667 15.333 -90.667 46 -126c31.333 -36 74 -54 128 -54c54.667 0 97 17 127 51s45 75.667 45 125s-15.333 92 -46 128s-72.667 54 -126 54z" />
    <glyph glyph-name="guillemotleft" unicode="&#xab;" horiz-adv-x="789" 
d="M-21 570l287 -424l187 141l-205 287l193 266l-175 133zM334 570l287 -420l186 137l-198 274l190 283l-174 129z" />
    <glyph glyph-name="acute" unicode="&#xb4;" horiz-adv-x="209" 
d="M-165 1055h226l289 324h-403z" />
    <glyph glyph-name="paragraph" unicode="&#xb6;" horiz-adv-x="1045" 
d="M486 -404h48v670v1035h195v-670v-1035h47v670v1039h244v45h-522c-73.333 0 -142.333 -11 -207 -33c-64 -22.667 -116.333 -58.334 -157 -107.001c-40 -49.333 -60 -112 -60 -188c0 -73.333 18.5 -133.666 55.5 -180.999s86.833 -81.5 149.5 -102.5
s131.667 -31.5 207 -31.5v-76v-1035z" />
    <glyph glyph-name="periodcentered" unicode="&#xb7;" horiz-adv-x="459" 
d="M232 873c-57.333 0 -101.833 -18.6689 -133.5 -56.002s-47.5 -81.666 -47.5 -132.999c0 -49.333 15.833 -92.333 47.5 -129s76.167 -55 133.5 -55c56 0 99.667 18.333 131 55s47 79.667 47 129c0 32.667 -6.83301 63.334 -20.5 92.001s-34 52 -61 70s-59.167 27 -96.5 27
z" />
    <glyph glyph-name="cedilla" unicode="&#xb8;" horiz-adv-x="209" 
d="M-267 -336c72 -49.333 128.168 -81.834 168.501 -97.501s85.5 -23.5 135.5 -23.5c48 0 91.667 8.5 131 25.5s70 40.833 92 71.5s33 64.667 33 102c0 96.667 -63.667 156 -191 178l83 136h-193l-135 -267c9.33301 0 27.5 1.33301 54.5 4s42.167 4 45.5 4
c64 0 96 -22.667 96 -68c0 -15.333 -6.83301 -28.666 -20.5 -39.999s-30.167 -17 -49.5 -17c-46.667 0 -111.334 34 -194.001 102z" />
    <glyph glyph-name="guillemotright" unicode="&#xbb;" horiz-adv-x="789" 
d="M-21 287l181 -137l295 420l-295 403l-177 -129l193 -283zM338 287l180 -141l289 424l-289 403l-168 -133l185 -266z" />
    <glyph glyph-name="questiondown" unicode="&#xbf;" horiz-adv-x="1082" 
d="M621 465c-16 -78 -47.3311 -116.999 -93.998 -116.999c-22.667 0 -40.834 8.66699 -54.501 26s-20.5 41 -20.5 71c0 42 15.5 73.333 46.5 94s69.167 31 114.5 31c26 0 51.667 -4.33301 77 -13v355c-52 6.66699 -99.667 10 -143 10
c-70.667 0 -138.334 -8.33301 -203.001 -25c-64 -18 -122 -45.5 -174 -82.5s-92.667 -84.833 -122 -143.5c-30 -58 -45 -126 -45 -204c0 -74.667 12.833 -142.5 38.5 -203.5s62.5 -113.333 110.5 -157s105 -76.834 171 -99.501c66 -24 139.333 -36 220 -36
c76.667 0 147 12 211 36c64 22.667 119.333 56 166 100c47.333 43.333 84.333 95.333 111 156s42 128 46 202h-456zM549.002 1467c-76.667 0 -139.332 -22.334 -187.999 -67.001c-50 -44.667 -75 -101 -75 -169c0 -47.333 12.667 -88 38 -122c24 -34.667 56 -60.5 96 -77.5
s82.333 -25.5 127 -25.5s87.167 8.83301 127.5 26.5s73.166 43.834 98.499 78.501c25.333 35.333 38 76.666 38 123.999c0 42.667 -11.5 81.834 -34.5 117.501s-54.5 63.667 -94.5 84s-84.333 30.5 -133 30.5z" />
    <glyph glyph-name="Agrave" unicode="&#xc0;" horiz-adv-x="1411" 
d="M-21 0h502l46 174h354l53 -174h506l-110 312l-359 1038h-535l-106 -316zM604 500l103 377l96 -377h-199zM342 1667l283 -321h233l-116 321h-400z" />
    <glyph glyph-name="Aacute" unicode="&#xc1;" horiz-adv-x="1411" 
d="M-21 0h502l46 174h354l53 -174h506l-110 312l-359 1037h-535l-106 -315zM604 500l103 377l96 -377h-199zM543 1346l109 321h403l-279 -321h-233z" />
    <glyph glyph-name="Acircumflex" unicode="&#xc2;" horiz-adv-x="1411" 
d="M-21 0h502l46 174h354l53 -174h506l-110 312l-359 1038h-535l-106 -316zM604 500l103 377l96 -377h-199zM325 1350h267l115 156l117 -156h274l-193 317h-395z" />
    <glyph glyph-name="Atilde" unicode="&#xc3;" horiz-adv-x="1411" 
d="M-21 0h502l46 174h354l53 -174h506l-110 312l-359 1038h-535l-106 -316zM604 500l103 377l96 -377h-199zM469 1350c36.667 29.333 63.5 48.667 80.5 58s35.167 14 54.5 14s37.666 -3.33301 54.999 -10s38.666 -16.167 63.999 -28.5s47 -21.833 65 -28.5
c18.667 -6 37.334 -9 56.001 -9c61.333 0 127 41.667 197 125l-99 180l-16 -14c-40.667 -37.333 -81 -56 -121 -56c-27.333 0 -69.666 10.333 -126.999 31c-44 15.333 -83.667 23 -119 23c-72 0 -140.667 -35.667 -206 -107z" />
    <glyph glyph-name="Adieresis" unicode="&#xc4;" horiz-adv-x="1411" 
d="M-21 0h503l45 174h354l53 -174h506l-111 312l-358 1038h-535l-106 -316zM604 500l103 377l96 -377h-199zM522 1688c-53.333 0 -95.333 -17.833 -126 -53.5s-46 -77.167 -46 -124.5c0 -48.667 15.167 -91 45.5 -127s72.5 -54 126.5 -54c54.667 0 96.667 17.833 126 53.5
s44 78.167 44 127.5c0 48 -14.833 89.667 -44.5 125s-71.5 53 -125.5 53zM957 1688c-55.333 0 -98.332 -18.001 -128.999 -54.001c-31.333 -35.333 -47 -76.666 -47 -123.999c0 -48.667 15.333 -91 46 -127c31.333 -36 74.666 -54 129.999 -54c53.333 0 95 18 125 54
s45 77.667 45 125c0 48 -15 90 -45 126s-71.667 54 -125 54z" />
    <glyph glyph-name="Aring" unicode="&#xc5;" horiz-adv-x="1411" 
d="M-21 0h502l46 174h354l53 -174h506l-110 312l-359 1038h-535l-106 -316zM604 500l103 377l96 -377h-199zM711 1579c24.667 0 43.667 -8 57 -24c14 -16 21 -35.333 21 -58c0 -22 -7 -41.5 -21 -58.5s-33 -25.5 -57 -25.5c-26 0 -46.167 8.66699 -60.5 26
s-21.5 37.333 -21.5 60c0 21.333 7 40 21 56s34.333 24 61 24zM711 1741c-45.333 0 -86.998 -10.3311 -124.998 -30.998c-37.333 -21.333 -66.833 -50.333 -88.5 -87s-32.5 -77.334 -32.5 -122.001c0 -68 23.667 -125.833 71 -173.5s105.666 -71.5 174.999 -71.5
c67.333 0 124.666 24 171.999 72c48 48 72 105.667 72 173c0 44.667 -11 85.167 -33 121.5s-51.667 65.166 -89 86.499s-78 32 -122 32z" />
    <glyph glyph-name="AE" unicode="&#xc6;" horiz-adv-x="1960" 
d="M-1 0h506l44 166h344l49 -166h1022l-141 360h-485l-52 144h473l-135 344h-461l-41 137h437l-144 365h-956l-109 -316zM635 496l90 348l90 -348h-180z" />
    <glyph glyph-name="Ccedilla" unicode="&#xc7;" horiz-adv-x="1045" 
d="M377 -207c7.33301 0 21.502 0.999023 42.502 2.99902s38.833 3 53.5 3c68 0 102 -23.333 102 -70c0 -13.333 -6.66699 -25.333 -20 -36c-14.667 -11.333 -31 -17 -49 -17c-46 0 -111.667 32.667 -197 98l-52 -110c72 -49.333 127.5 -81.833 166.5 -97.5
s82.833 -23.5 131.5 -23.5c78 0 141.5 18.667 190.5 56s73.5 85 73.5 143c0 96 -63.667 155.333 -191 178l29 51h29h4c56.667 0 104.667 3.83301 144 11.5s104 25.834 194 54.501v498c-60 -46 -108.5 -77.333 -145.5 -94s-79.167 -25 -126.5 -25c-74 0 -135.333 25 -184 75
c-50 49.333 -75 111.666 -75 186.999c0 47.333 11.833 91 35.5 131s55.667 71.5 96 94.5s84.166 34.5 131.499 34.5c45.333 0 86.5 -9.33301 123.5 -28s85.167 -53 144.5 -103v508c-94 29.333 -160.333 48 -199 56s-83.334 12 -134.001 12
c-130 0 -247.833 -31.333 -353.5 -94s-188.5 -149 -248.5 -259c-60 -109.333 -90 -230.666 -90 -363.999c0 -106.667 19.333 -206 58 -298c39.333 -91.333 95 -169.333 167 -234c72 -64 156.333 -110 253 -138z" />
    <glyph glyph-name="Egrave" unicode="&#xc8;" horiz-adv-x="957" 
d="M36 0h906v364h-416v144h363v344h-363v133h404v365h-894v-316v-1034zM114 1667l277 -321h240l-117 321h-400z" />
    <glyph glyph-name="Eacute" unicode="&#xc9;" horiz-adv-x="957" 
d="M36 0h906v364h-416v144h363v344h-363v133h404v364h-894v-315v-1034zM313 1346l111 321h404l-283 -321h-232z" />
    <glyph glyph-name="Ecircumflex" unicode="&#xca;" horiz-adv-x="957" 
d="M36 0h906v364h-416v144h363v344h-363v133h404v365h-894v-316v-1034zM98 1350h262l117 156l119 -156h271l-189 317h-395z" />
    <glyph glyph-name="Edieresis" unicode="&#xcb;" horiz-adv-x="957" 
d="M36 0h906v364h-416v144h363v344h-363v133h404v365h-894v-316v-1034zM293 1688c-54 0 -96.333 -17.833 -127 -53.5s-46 -77.167 -46 -124.5c0 -48.667 15.333 -91 46 -127s73 -54 127 -54c54.667 0 97 17.667 127 53s45 77.333 45 126c0 30 -6.66699 58.833 -20 86.5
s-33 50.167 -59 67.5s-57 26 -93 26zM725 1688c-54.667 0 -97.667 -17.833 -129 -53.5s-47 -77.167 -47 -124.5c0 -48.667 15.667 -91 47 -127s74.333 -54 129 -54s97 18 127 54s45 78.333 45 127c0 47.333 -15 88.833 -45 124.5s-72.333 53.5 -127 53.5z" />
    <glyph glyph-name="Igrave" unicode="&#xcc;" horiz-adv-x="539" 
d="M28 0h482v312v1038h-482v-316v-1034zM-99 1667l284 -321h239l-119 321h-404z" />
    <glyph glyph-name="Iacute" unicode="&#xcd;" horiz-adv-x="539" 
d="M28 0h483l-1 312v1037h-482v-315v-1034zM106 1346l105 321h410l-283 -321h-232z" />
    <glyph glyph-name="Icircumflex" unicode="&#xce;" horiz-adv-x="539" 
d="M28 0h483l-1 312v1038h-482v-316v-1034zM-111 1350h262l120 156l112 -156h275l-189 317h-399z" />
    <glyph glyph-name="Idieresis" unicode="&#xcf;" horiz-adv-x="539" 
d="M28 0h482v312v1038h-482v-316v-1034zM86 1688c-54.667 0 -97.333 -17.667 -128 -53c-30 -35.333 -45 -77 -45 -125c0 -49.333 15 -91.666 45 -126.999c30.667 -36 73.334 -54 128.001 -54s96.667 17.5 126 52.5s44 77.167 44 126.5c0 30 -6.66699 59 -20 87
c-12.667 27.333 -31.834 49.666 -57.501 66.999s-56.5 26 -92.5 26zM518.001 1688c-54.667 0 -97.667 -17.833 -129 -53.5s-47 -77.167 -47 -124.5c0 -48.667 15.667 -91 47 -127s74.333 -54 129 -54s96.667 17.833 126 53.5s44 78.167 44 127.5
c0 48 -14.833 89.667 -44.5 125s-71.5 53 -125.5 53z" />
    <glyph glyph-name="Ntilde" unicode="&#xd1;" horiz-adv-x="1411" 
d="M20 0v1350h507l378 -676v676h482v-1350h-489l-396 707v-707h-482zM469 1365l-116 179.001c60 72.667 127.333 109 202 109c26 0 70.333 -9.33301 133 -28s101.667 -28 117 -28c44.667 0 90.334 23.333 137.001 70l99 -180c-70 -84 -137 -126 -201 -126
c-22.667 0 -48 6.33301 -76 19c-56.667 26 -93.334 42 -110.001 48s-33.334 9 -50.001 9c-20 0 -39.167 -4.83301 -57.5 -14.5s-44.166 -28.834 -77.499 -57.501z" />
    <glyph glyph-name="Ograve" unicode="&#xd2;" horiz-adv-x="1463" 
d="M729 1383c107.333 0 206.168 -17 296.501 -51s168.166 -82.5 233.499 -145.5s115.666 -137.667 150.999 -224s53 -181.166 53 -284.499c0 -105.333 -17.5 -201.833 -52.5 -289.5s-85.167 -162.834 -150.5 -225.501s-144 -111 -236 -145s-193 -51 -303 -51
c-103.333 0 -199.333 17.167 -288 51.5s-165.5 83.166 -230.5 146.499s-115 138.333 -150 225s-52.5 181.334 -52.5 284.001c0 137.333 30.5 260 91.5 368s146.833 191.833 257.5 251.5s237.334 89.5 380.001 89.5zM729.002 922c70.667 0 126 -25.002 166 -75.002
c40 -49.333 60 -107.666 60 -174.999c0 -68 -20 -127 -60 -177s-95.333 -75 -166 -75c-68.667 0 -122 24.833 -160 74.5s-57 108.834 -57 177.501c0 42.667 8.33301 83 25 121c16 38.667 40.667 69.667 74 93c32.667 24 72 36 118 36zM365.002 1667l282 -321h234l-113 321
h-403z" />
    <glyph glyph-name="Oacute" unicode="&#xd3;" horiz-adv-x="1463" 
d="M729 1383c107.333 0 206.168 -17 296.501 -51s168.166 -82.5 233.499 -145.5s115.666 -137.667 150.999 -224s53 -181.166 53 -284.499c0 -105.333 -17.5 -201.833 -52.5 -289.5s-85.167 -162.834 -150.5 -225.501s-144 -111 -236 -145s-193 -51 -303 -51
c-103.333 0 -199.333 17.167 -288 51.5s-165.5 83.166 -230.5 146.499s-115 138.333 -150 225s-52.5 181.334 -52.5 284.001c0 137.333 30.5 260 91.5 368s146.833 191.833 257.5 251.5s237.334 89.5 380.001 89.5zM729.002 922c70.667 0 126 -25.002 166 -75.002
c40 -49.333 60 -107.666 60 -174.999c0 -68 -20 -127 -60 -177s-95.333 -75 -166 -75c-68.667 0 -122 24.833 -160 74.5s-57 108.834 -57 177.501c0 42.667 8.33301 83 25 121c16 38.667 40.667 69.667 74 93c32.667 24 72 36 118 36zM563.002 1346l111 321h403l-278 -321
h-236z" />
    <glyph glyph-name="Ocircumflex" unicode="&#xd4;" horiz-adv-x="1463" 
d="M729 1383c-142.667 0 -269.336 -29.833 -380.003 -89.5s-196.5 -143.5 -257.5 -251.5s-91.5 -230.667 -91.5 -368c0 -102.667 17.5 -197.334 52.5 -284.001s85 -161.667 150 -225s141.833 -112.166 230.5 -146.499s184.667 -51.5 288 -51.5c110 0 211 17 303 51
s170.667 82.333 236 145s115.5 137.834 150.5 225.501s52.5 184.167 52.5 289.5c0 103.333 -17.667 198.166 -53 284.499s-85.666 161 -150.999 224s-143.166 111.5 -233.499 145.5s-189.166 51 -296.499 51zM728.998 922c70.667 0 126 -25.002 166 -75.002
c40 -49.333 60 -107.666 60 -174.999c0 -68 -20 -127 -60 -177s-95.333 -75 -166 -75c-68.667 0 -122 24.833 -160 74.5s-57 108.834 -57 177.501c0 42.667 8.33301 83 25 121c16 38.667 40.667 69.667 74 93c32.667 24 72 36 118 36zM349.998 1350h267l112 156l119 -156
h275l-189 317h-399z" />
    <glyph glyph-name="Otilde" unicode="&#xd5;" horiz-adv-x="1463" 
d="M729 1383c-142.667 0 -269.336 -29.833 -380.003 -89.5s-196.5 -143.5 -257.5 -251.5s-91.5 -230.667 -91.5 -368c0 -102.667 17.5 -197.334 52.5 -284.001s85 -161.667 150 -225s141.833 -112.166 230.5 -146.499s184.667 -51.5 288 -51.5c110 0 211 17 303 51
s170.667 82.333 236 145s115.5 137.834 150.5 225.501s52.5 184.167 52.5 289.5c0 103.333 -17.667 198.166 -53 284.499s-85.666 161 -150.999 224s-143.166 111.5 -233.499 145.5s-189.166 51 -296.499 51zM728.998 922c70.667 0 126 -25.002 166 -75.002
c40 -49.333 60 -107.666 60 -174.999c0 -68 -20 -127 -60 -177s-95.333 -75 -166 -75c-68.667 0 -122 24.833 -160 74.5s-57 108.834 -57 177.501c0 42.667 8.33301 83 25 121c16 38.667 40.667 69.667 74 93c32.667 24 72 36 118 36zM493.998 1350
c50 42 94.9961 63 134.996 63c28.667 0 63.334 -8.66699 104.001 -26c64.667 -27.333 109.334 -41 134.001 -41c33.333 0 65.333 9.66699 96 29c30.667 20 63.334 52 98.001 96l-98 180l-12 -14c-41.333 -37.333 -81.666 -56 -120.999 -56c-30 0 -72.333 10.333 -127 31
c-46 15.333 -85 23 -117 23c-70 0 -139.667 -35.667 -209 -107z" />
    <glyph glyph-name="Odieresis" unicode="&#xd6;" horiz-adv-x="1463" 
d="M729 1383c-142.667 0 -269.336 -29.833 -380.003 -89.5s-196.5 -143.5 -257.5 -251.5s-91.5 -230.667 -91.5 -368c0 -102.667 17.5 -197.334 52.5 -284.001s85 -161.667 150 -225s141.833 -112.166 230.5 -146.499s184.667 -51.5 288 -51.5c110 0 211 17 303 51
s170.667 82.333 236 145s115.5 137.834 150.5 225.501s52.5 184.167 52.5 289.5c0 103.333 -17.667 198.166 -53 284.499s-85.666 161 -150.999 224s-143.166 111.5 -233.499 145.5s-189.166 51 -296.499 51zM728.998 922c70.667 0 126 -25.002 166 -75.002
c40 -49.333 60 -107.666 60 -174.999c0 -68 -20 -127 -60 -177s-95.333 -75 -166 -75c-68.667 0 -122 24.833 -160 74.5s-57 108.834 -57 177.501c0 42.667 8.33301 83 25 121c16 38.667 40.667 69.667 74 93c32.667 24 72 36 118 36zM544.998 1688
c-54 0 -96.333 -18 -127 -54c-31.333 -35.333 -47 -76.666 -47 -123.999c0 -48.667 15.333 -91 46 -127c31.333 -36 74 -54 128 -54s96.167 18 126.5 54s45.5 78.333 45.5 127c0 47.333 -15 88.666 -45 123.999c-30.667 36 -73 54 -127 54zM978.998 1688
c-54.667 0 -97.667 -18.001 -129 -54.001c-30.667 -35.333 -46 -76.666 -46 -123.999c0 -48.667 15.333 -91 46 -127s73.667 -54 129 -54c54.667 0 97 18 127 54s45 77.667 45 125c0 48 -15.167 90 -45.5 126s-72.5 54 -126.5 54z" />
    <glyph glyph-name="Oslash" unicode="&#xd8;" horiz-adv-x="1463" 
d="M-8 41l94.001 -96.998l185 171c61.333 -50.667 127.666 -87 198.999 -109c71.333 -23.333 153.666 -35 246.999 -35c112.667 0 214.834 16.5 306.501 49.5s170.667 80.333 237 142s117 135.5 152 221.5s52.5 181.333 52.5 286c0 96 -12.667 182.833 -38 260.5
s-61.666 142.5 -108.999 194.5l147 151l-93 103l-157 -154c-74.667 56 -146.834 95.667 -216.501 119s-153.834 35 -252.501 35c-112.667 0 -214.334 -16.333 -305.001 -49c-91.333 -32 -169.666 -79.333 -234.999 -142c-66 -62 -116.167 -136.833 -150.5 -224.5
s-51.5 -185.5 -51.5 -293.5c0 -96.667 12.333 -181.834 37 -255.501s64.334 -142.834 119.001 -207.501zM535.001 561.002c-14 51.333 -20.999 93.002 -20.999 125.002c0 43.333 10.333 82.666 31 117.999s48.167 63.166 82.5 83.499s70.166 30.5 107.499 30.5
c46.667 0 88 -13.667 124 -41zM946.002 768.004c6 -22.667 9.00098 -48.668 9.00098 -78.001c0 -46 -8.33301 -90 -25 -132c-17.333 -41.333 -43 -74.666 -77 -99.999s-75.333 -38 -124 -38c-22.667 0 -57.334 13.667 -104.001 41z" />
    <glyph glyph-name="Ugrave" unicode="&#xd9;" horiz-adv-x="1295" 
d="M1270 1350h-481.001v-772c0 -56.667 -12.333 -100.667 -37 -132c-24.667 -30.667 -59.667 -46 -105 -46c-46 0 -81.667 15.667 -107 47c-25.333 32 -38 75.667 -38 131v772h-481v-811c0 -140.667 21.667 -246.667 65 -318c50 -82.667 122.5 -145.667 217.5 -189
s209.5 -65 343.5 -65c86 0 164 9 234 27c70 18.667 131 45.667 183 81c52.667 35.333 94.834 78.5 126.501 129.5s52.167 108.5 61.5 172.5c12 78 18 132 18 162v811zM278.999 1667l280 -321h240l-117 321h-403z" />
    <glyph glyph-name="Uacute" unicode="&#xda;" horiz-adv-x="1295" 
d="M1270 1349l-481.001 0.000976562v-771c0 -56.667 -12.333 -100.667 -37 -132c-24.667 -30.667 -59.667 -46 -105 -46c-46 0 -81.667 15.667 -107 47s-38 74.666 -38 129.999v772h-481v-810c0 -140.667 21.667 -246.667 65 -318c50 -82.667 122.5 -145.667 217.5 -189
s209.5 -65 343.5 -65c86 0 164 9 234 27c70 18.667 131 45.667 183 81c52.667 35.333 94.834 78.5 126.501 129.5s52.167 108.5 61.5 172.5c12 78 18 132 18 162v810zM476.999 1346l115 321h404l-285 -321h-234z" />
    <glyph glyph-name="Ucircumflex" unicode="&#xdb;" horiz-adv-x="1295" 
d="M1270 1350h-481.001v-772c0 -56.667 -12.333 -100.667 -37 -132c-24.667 -30.667 -59.667 -46 -105 -46c-46 0 -81.667 15.667 -107 47c-25.333 32 -38 75.667 -38 131v772h-481v-811c0 -140.667 21.667 -246.667 65 -318c50 -82.667 122.5 -145.667 217.5 -189
s209.5 -65 343.5 -65c86 0 164 9 234 27c70 18.667 131 45.667 183 81c52.667 35.333 94.834 78.5 126.501 129.5s52.167 108.5 61.5 172.5c12 78 18 132 18 162v811zM265.999 1350h265l116 156l113 -156h277l-193 317h-391z" />
    <glyph glyph-name="Udieresis" unicode="&#xdc;" horiz-adv-x="1295" 
d="M1270 1350h-481.001v-772c0 -56.667 -12.333 -100.667 -37 -132c-24.667 -30.667 -59.667 -46 -105 -46c-46 0 -81.667 15.667 -107 47c-25.333 32 -38 75.667 -38 131v772h-481v-811c0 -140.667 21.667 -246.667 65 -318c50 -82.667 122.5 -145.667 217.5 -189
s209.5 -65 343.5 -65c86 0 164 9 234 27c70 18.667 131 45.667 183 81c52.667 35.333 94.834 78.5 126.501 129.5s52.167 108.5 61.5 172.5c12 78 18 132 18 162v811zM460.999 1688c-54 0 -97 -18.001 -129 -54.001c-31.333 -35.333 -47 -76.666 -47 -123.999
c0 -48 15.667 -90 47 -126c32 -36.667 75 -55 129 -55c54.667 0 97 18 127 54s45 77.667 45 125c0 48 -15.167 90 -45.5 126s-72.5 54 -126.5 54zM888.999 1688c-54 0 -96 -17.833 -126 -53.5s-45 -77.167 -45 -124.5c0 -48.667 15 -91 45 -127s72 -54 126 -54
c54.667 0 97 18 127 54s45 78.333 45 127c0 47.333 -15 88.833 -45 124.5s-72.333 53.5 -127 53.5z" />
    <glyph glyph-name="Yacute" unicode="&#xdd;" horiz-adv-x="1333" 
d="M-13 1349l429 -767v-582h477v577l453 772h-543l-141 -355l-127 355h-548zM502 1346l111 321h404l-284 -321h-231z" />
    <glyph glyph-name="germandbls" unicode="&#xdf;" horiz-adv-x="1164" 
d="M25 0l457.001 -0.000976562v959c0 52 9.66699 92.667 29 122s46.333 44 81 44c24 0 44.333 -9 61 -27s25 -39.333 25 -64c0 -31.333 -10.833 -53.833 -32.5 -67.5s-55.834 -20.5 -102.501 -20.5v-276c48.667 0 86.5 -19.833 113.5 -59.5s40.5 -86.167 40.5 -139.5
c0 -54 -13.167 -101 -39.5 -141s-64.5 -62.667 -114.5 -68v-258l66 -4c72 0 131.5 2.16699 178.5 6.5s94 15.5 141 33.5s89.833 47 128.5 87c40 38 68.333 83 85 135c17.333 51.333 26 117.666 26 198.999c0 104.667 -19.333 184.334 -58 239.001s-107 98.667 -205 132
c62 36 104.833 74.333 128.5 115s35.5 96.334 35.5 167.001c0 54 -11.833 103.333 -35.5 148s-58.167 83.334 -103.5 116.001c-45.333 33.333 -99.333 58.666 -162 75.999c-63.333 18 -133 27 -209 27c-114 0 -210.833 -16.833 -290.5 -50.5s-140.167 -82.667 -181.5 -147
s-62 -141.833 -62 -232.5v-17v-1034z" />
    <glyph glyph-name="agrave" unicode="&#xe0;" horiz-adv-x="1164" 
d="M678 0l463 -0.000976562v959h-467v-94c-68 75.333 -154 113 -258 113c-88.667 0 -165 -24.333 -229 -73c-63.333 -48 -111.333 -111 -144 -189s-49 -160.333 -49 -247c0 -84 15.5 -163.667 46.5 -239s77.5 -135.666 139.5 -180.999c62 -46.667 136.667 -70 224 -70
c60 0 110 8.83301 150 26.5s81.333 49.5 124 95.5v-101zM563 605.999c36.667 0 65 -12.334 85 -37.001c20.667 -25.333 31 -55.333 31 -90c0 -36 -10.667 -66.667 -32 -92c-20.667 -26 -50 -39 -88 -39c-35.333 0 -62.5 12.667 -81.5 38s-28.5 55 -28.5 89
c0 34.667 10 65.334 30 92.001c20.667 26 48.667 39 84 39zM211 1379l287 -324h236l-113 324h-410z" />
    <glyph glyph-name="aacute" unicode="&#xe1;" horiz-adv-x="1164" 
d="M678 0l463 -0.000976562v959h-467v-94c-68 74.667 -154 112 -258 112c-88.667 0 -165 -24 -229 -72c-63.333 -48 -111.333 -111 -144 -189s-49 -160.333 -49 -247c0 -84 15.5 -163.667 46.5 -239s77.5 -135.666 139.5 -180.999c62 -46.667 136.667 -70 224 -70
c60 0 110 8.83301 150 26.5s81.333 49.5 124 95.5v-101zM563 605.999c36.667 0 65 -12.334 85 -37.001c20.667 -25.333 31 -55.333 31 -90c0 -36 -10.667 -66.667 -32 -92c-20.667 -26 -50 -39 -88 -39c-35.333 0 -62.5 12.667 -81.5 38s-28.5 55 -28.5 89
c0 34.667 10 65.334 30 92.001c20.667 26 48.667 39 84 39zM412 1054h235l288 325h-408z" />
    <glyph glyph-name="acircumflex" unicode="&#xe2;" horiz-adv-x="1164" 
d="M678 0l463 -0.000976562v958h-467v-93c-68 74.667 -154 112 -258 112c-88.667 0 -165 -24 -229 -72c-63.333 -48 -111.333 -111 -144 -189s-49 -160.333 -49 -247c0 -84 15.5 -163.667 46.5 -239s77.5 -135.666 139.5 -180.999c62 -46.667 136.667 -70 224 -70
c60 0 110 8.83301 150 26.5s81.333 49.5 124 95.5v-101zM563 605.999c36.667 0 65 -12.334 85 -37.001c20.667 -25.333 31 -55.333 31 -90c0 -36 -10.667 -66.667 -32 -92c-20.667 -26 -50 -39 -88 -39c-35.333 0 -62.5 12.667 -81.5 38s-28.5 55 -28.5 89
c0 34.667 10 65.334 30 92.001c20.667 26 48.667 39 84 39zM201 1057h264l115 156l115 -156h277l-191 322h-398z" />
    <glyph glyph-name="atilde" unicode="&#xe3;" horiz-adv-x="1164" 
d="M678 0l463 -0.000976562v959h-467v-94c-68 75.333 -154 113 -258 113c-88.667 0 -165 -24.333 -229 -73c-63.333 -48 -111.333 -111 -144 -189s-49 -160.333 -49 -247c0 -84 15.5 -163.667 46.5 -239s77.5 -135.666 139.5 -180.999c62 -46.667 136.667 -70 224 -70
c60 0 110 8.83301 150 26.5s81.333 49.5 124 95.5v-101zM563 605.999c36.667 0 65 -12.334 85 -37.001c20.667 -25.333 31 -55.333 31 -90c0 -36 -10.667 -66.667 -32 -92c-20.667 -26 -50 -39 -88 -39c-35.333 0 -62.5 12.667 -81.5 38s-28.5 55 -28.5 89
c0 34.667 10 65.334 30 92.001c20.667 26 48.667 39 84 39zM346 1057c52.667 50.667 96.332 76 130.999 76c22.667 0 48 -6.66699 76 -20l83 -38.5c28 -13 53.667 -19.5 77 -19.5c65.333 0 132.333 40.333 201 121l-99 186l-16 -16c-41.333 -34 -81.666 -51 -120.999 -51
c-14 0 -55.667 8.66699 -125 26c-40.667 14 -81 21 -121 21c-80 0 -148 -35.667 -204 -107z" />
    <glyph glyph-name="adieresis" unicode="&#xe4;" horiz-adv-x="1164" 
d="M678 0l463 -0.000976562v959h-467v-94c-68 74.667 -154 112 -258 112c-88.667 0 -165 -24 -229 -72c-63.333 -48 -111.333 -111 -144 -189s-49 -160.333 -49 -247c0 -84 15.5 -163.667 46.5 -239s77.5 -135.666 139.5 -180.999c62 -46.667 136.667 -70 224 -70
c60 0 110 8.83301 150 26.5s81.333 49.5 124 95.5v-101zM563 605.999c36.667 0 65 -12.501 85 -37.501s30 -54.833 30 -89.5c0 -36 -10.333 -66.833 -31 -92.5s-50 -38.5 -88 -38.5c-35.333 0 -62.5 12.667 -81.5 38s-28.5 55 -28.5 89c0 34.667 10 65.334 30 92.001
c20.667 26 48.667 39 84 39zM396 1397c-55.333 0 -98.666 -17.667 -129.999 -53s-47 -77 -47 -125c0 -49.333 15.667 -91.833 47 -127.5s74.666 -53.5 129.999 -53.5c54.667 0 97 17.833 127 53.5s45 78.167 45 127.5c0 48 -15.167 89.667 -45.5 125s-72.5 53 -126.5 53z
M828 1397c-54.667 0 -97.334 -17.667 -128.001 -53s-46 -77 -46 -125c0 -49.333 15.333 -91.833 46 -127.5s73.334 -53.5 128.001 -53.5c54 0 96 18 126 54c29.333 34.667 44 77 44 127c0 48 -14.833 89.667 -44.5 125s-71.5 53 -125.5 53z" />
    <glyph glyph-name="aring" unicode="&#xe5;" horiz-adv-x="1164" 
d="M678 0l463 -0.000976562v959h-467v-94c-68 74.667 -154 112 -258 112c-88.667 0 -165 -24 -229 -72c-63.333 -48 -111.333 -111 -144 -189s-49 -160.333 -49 -247c0 -84 15.5 -163.667 46.5 -239s77.5 -135.666 139.5 -180.999c62 -46.667 136.667 -70 224 -70
c60 0 110 8.83301 150 26.5s81.333 49.5 124 95.5v-101zM563 605.999c36.667 0 65 -12.334 85 -37.001c20.667 -25.333 31 -55.333 31 -90c0 -36 -10.667 -66.667 -32 -92c-20.667 -26 -50 -39 -88 -39c-35.333 0 -62.5 12.667 -81.5 38s-28.5 55 -28.5 89
c0 34.667 10 65.334 30 92.001c20.667 26 48.667 39 84 39zM580 1297c27.333 0 47.667 -8.33301 61 -25c14 -16.667 21 -37 21 -61s-7 -44.333 -21 -61s-34.333 -25 -61 -25c-24.667 0 -44.667 8.66699 -60 26c-14.667 16.667 -22 36 -22 58
c0 23.333 7.33301 43.833 22 61.5s34.667 26.5 60 26.5zM580.001 1458c-64 0 -119.668 -24.499 -167.001 -73.499s-71 -107.5 -71 -175.5c0 -44.667 10.833 -85.334 32.5 -122.001s50.834 -66 87.501 -88c36 -21.333 75.333 -32 118 -32c66.667 0 124 23.333 172 70
c48 47.333 72 104.666 72 171.999c0 68.667 -24 127.334 -72 176.001s-105.333 73 -172 73z" />
    <glyph glyph-name="ae" unicode="&#xe6;" horiz-adv-x="1831" 
d="M1350 316c-20.667 -49.333 -48.668 -73.998 -84.001 -73.998c-30.667 0 -53 11.167 -67 33.5s-23 60.833 -27 115.5h647v17c-2 122.667 -25 228 -69 316c-43.333 87.333 -105.5 153.333 -186.5 198s-178.833 67 -293.5 67c-83.333 0 -155.666 -10.833 -216.999 -32.5
s-126.333 -59.167 -195 -112.5c-107.333 92.667 -242.333 139 -405 139c-79.333 0 -177 -12.333 -293 -37l-94 -340c100.667 41.333 174.167 67.833 220.5 79.5s102.5 17.5 168.5 17.5c47.333 0 89.333 -6.66699 126 -20c36.667 -12.667 65 -31 85 -55s31 -52.333 33 -85
c-64.667 23.333 -114.667 39 -150 47s-75.666 12 -120.999 12c-138 0 -244.5 -26.5 -319.5 -79.5s-112.5 -128.167 -112.5 -225.5c0 -66 19.333 -124 58 -174s94 -88.5 166 -115.5s155 -40.5 249 -40.5c70 0 133 8.66699 189 26c56.667 18 130.334 51 221.001 99
c69.333 -46 132.666 -78.333 189.999 -97s124.333 -28 201 -28c87.333 0 169.666 15.667 246.999 47s141 73.666 191 126.999s79.667 111.666 89 174.999h-447zM575.999 396.002c38 0 68.667 -7.99902 92 -23.999c23.333 -15.333 35 -35.333 35 -60
c0 -30.667 -12.833 -54.834 -38.5 -72.501s-55.167 -26.5 -88.5 -26.5c-32.667 0 -61 8.33301 -85 25s-36 39.667 -36 69c0 26.667 10.833 48.167 32.5 64.5s51.167 24.5 88.5 24.5zM1180 594.003c0 79.333 32.667 119 98 119c58 0 87 -39.667 87 -119h-185z" />
    <glyph glyph-name="ccedilla" unicode="&#xe7;" horiz-adv-x="789" 
d="M248 -207c4.66699 0 17.334 0.668945 38.001 2.00195s37.334 2 50.001 2c77.333 0 116 -22.667 116 -68c0 -13.333 -8 -25.5 -24 -36.5s-33 -16.5 -51 -16.5c-24 0 -50 7 -78 21c-27.333 14 -67 39.667 -119 77l-52 -110c52 -34.667 93.333 -60.334 124 -77.001
c31.333 -16.667 60.666 -28.167 87.999 -34.5s58 -9.5 92 -9.5c48 0 91.833 8.66699 131.5 26s70.667 41 93 71s33.5 64 33.5 102c0 51.333 -15.667 91 -47 119c-30.667 28 -79.334 47.667 -146.001 59l33 55c73.333 3.33301 152.666 18.666 237.999 45.999l8 391
c-50 -50.667 -105.667 -76 -167 -76c-42.667 0 -76 13.5 -100 40.5s-36 59.167 -36 96.5c0 39.333 13 73.333 39 102c25.333 29.333 60.333 44 105 44c26.667 0 50.5 -5 71.5 -15s50.167 -30.333 87.5 -61l-8 395c-102.667 28.667 -192.667 43 -270 43
c-145.333 0 -261.666 -47 -348.999 -141c-96 -97.333 -144 -221 -144 -371c0 -111.333 30.333 -212.333 91 -303c60 -90 144.667 -149.667 254 -179z" />
    <glyph glyph-name="egrave" unicode="&#xe8;" 
d="M647 320c-16 -46.667 -45.333 -70 -88 -70c-60 0 -90 44.333 -90 133v13h654v49c0 107.333 -23.333 202 -70 284c-46 82 -111.333 145.333 -196 190c-84 44 -180.333 66 -289 66c-85.333 0 -162.833 -12 -232.5 -36s-129.167 -58.667 -178.5 -104
s-87.166 -100.166 -113.499 -164.499s-39.5 -135.5 -39.5 -213.5c0 -76 13 -144.667 39 -206c25.333 -60.667 62.666 -113 111.999 -157c49.333 -43.333 108.166 -76.333 176.499 -99s145.5 -34 231.5 -34c90 0 174.167 15.167 252.5 45.5s142.5 72.166 192.5 125.499
c50.667 52.667 82.334 112 95.001 178h-456zM477 594c8.66699 78 40.333 117 95 117s86 -39 94 -117h-189zM192.999 1379l284 -325h236l-113 325h-407z" />
    <glyph glyph-name="eacute" unicode="&#xe9;" 
d="M647 320c-16 -46.667 -45.333 -70 -88 -70c-60 0 -90 44.333 -90 133v13h654v49c0 107.333 -23.333 202 -70 284c-46 82 -111.333 145.333 -196 190c-84 44 -180.333 66 -289 66c-85.333 0 -162.833 -12 -232.5 -36s-129.167 -58.667 -178.5 -104
s-87.166 -100.166 -113.499 -164.499s-39.5 -135.5 -39.5 -213.5c0 -76 13 -144.667 39 -206c25.333 -60.667 62.666 -113 111.999 -157c49.333 -43.333 108.166 -76.333 176.499 -99s145.5 -34 231.5 -34c90 0 174.167 15.167 252.5 45.5s142.5 72.166 192.5 125.499
c50.667 52.667 82.334 112 95.001 178h-456zM477 594c8.66699 78 40.333 117 95 117s86 -39 94 -117h-189zM390.999 1054h238l281 325h-404z" />
    <glyph glyph-name="ecircumflex" unicode="&#xea;" 
d="M647 320c-16 -46.667 -45.333 -70 -88 -70c-60 0 -90 44.333 -90 133v13h654v49c0 107.333 -23.333 202 -70 284c-46 82 -111.333 145.333 -196 190c-84 44 -180.333 66 -289 66c-85.333 0 -162.833 -12 -232.5 -36s-129.167 -58.667 -178.5 -104
s-87.166 -100.166 -113.499 -164.499s-39.5 -135.5 -39.5 -213.5c0 -76 13 -144.667 39 -206c25.333 -60.667 62.666 -113 111.999 -157c49.333 -43.333 108.166 -76.333 176.499 -99s145.5 -34 231.5 -34c90 0 174.167 15.167 252.5 45.5s142.5 72.166 192.5 125.499
c50.667 52.667 82.334 112 95.001 178h-456zM477 594c8.66699 78 40.333 117 95 117s86 -39 94 -117h-189zM179.999 1057h269l110 156l115 -156h281l-195 322h-395z" />
    <glyph glyph-name="edieresis" unicode="&#xeb;" 
d="M647 320c-16 -46.667 -45.332 -70 -87.999 -70c-60 0 -90 44.333 -90 133v13h654v49c0 107.333 -23.333 202 -70 284c-46 82 -111.333 145.333 -196 190c-84 44 -180.333 66 -289 66c-85.333 0 -162.833 -12 -232.5 -36s-129.167 -58.667 -178.5 -104
s-87.166 -100.166 -113.499 -164.499s-39.5 -135.5 -39.5 -213.5c0 -76 13 -144.667 39 -206c25.333 -60.667 62.666 -113 111.999 -157c49.333 -43.333 108.166 -76.333 176.499 -99s145.5 -34 231.5 -34c90 0 174.167 15.167 252.5 45.5s142.5 72.166 192.5 125.499
c50.667 52.667 82 112 94 178h-455zM477.001 594c8.66699 78 40.333 117 95 117s86 -39 94 -117h-189zM377 1397c-56 0 -99.333 -17.666 -130 -52.999c-30.667 -34.667 -46 -76.334 -46 -125.001c0 -49.333 15.333 -91.666 46 -126.999s74 -53 130 -53
c54.667 0 97 17.667 127 53s45 77.666 45 126.999c0 48 -15 89.667 -45 125s-72.333 53 -127 53zM807 1397c-54 0 -96.167 -17.668 -126.5 -53.001s-45.5 -77 -45.5 -125c0 -49.333 15 -91.666 45 -126.999s72.333 -53 127 -53s96.667 17.333 126 52
c29.333 35.333 44 77.333 44 126c0 48 -15 90 -45 126s-71.667 54 -125 54z" />
    <glyph glyph-name="igrave" unicode="&#xec;" horiz-adv-x="539" 
d="M41 0h457v959h-457v-959zM-99 1379l284 -324h240l-120 324h-404z" />
    <glyph glyph-name="iacute" unicode="&#xed;" horiz-adv-x="539" 
d="M41 0h457v959h-457v-959zM103 1055h231l287 324h-410z" />
    <glyph glyph-name="icircumflex" unicode="&#xee;" horiz-adv-x="539" 
d="M41 0h457v958h-457v-958zM-115 1057h266l120 156l108 -156h279l-193 322h-395z" />
    <glyph glyph-name="idieresis" unicode="&#xef;" horiz-adv-x="539" 
d="M41 0h457v959h-457v-959zM86 1397c-54.667 0 -97.335 -17.666 -128.002 -52.999c-30.667 -34.667 -46 -76.334 -46 -125.001s15.333 -91 46 -127c30.667 -35.333 73.334 -53 128.001 -53c54 0 95.667 17.333 125 52c28.667 35.333 43 77.333 43 126
s-14.667 90.667 -44 126c-29.333 36 -70.666 54 -123.999 54zM513.999 1397c-53.333 0 -95.333 -17.668 -126 -53.001s-46 -77 -46 -125c0 -49.333 15.167 -91.666 45.5 -126.999s72.5 -53 126.5 -53c54.667 0 96.667 17.5 126 52.5s44 77.5 44 127.5
c0 48 -14.667 89.667 -44 125s-71.333 53 -126 53z" />
    <glyph glyph-name="ntilde" unicode="&#xf1;" 
d="M37 0l0.000976562 959.002h440v-123c37.333 45.333 83.333 81.166 138 107.499s110.667 39.5 168 39.5c115.333 0 202.666 -49 261.999 -147c32.667 -58.667 49 -132.334 49 -221.001v-615h-458l-1 488c0 76 -24 114 -72 114c-46 0 -69 -39.333 -69 -118v-484h-457z
M326.001 1057l-117 178c56 71.333 123.667 107 203 107c39.333 0 80.333 -7 123 -21c69.333 -17.333 111 -26 125 -26c51.333 0 96.333 22.333 135 67l99 -186c-68.667 -80.667 -135 -121 -199 -121c-18 0 -35 2.66699 -51 8c-11.333 4.66699 -34 15.167 -68 31.5
s-54.667 25.833 -62 28.5c-20 6.66699 -37 10 -51 10c-40 0 -85.667 -25.333 -137 -76z" />
    <glyph glyph-name="ograve" unicode="&#xf2;" 
d="M559 989c-83.333 0 -159.335 -11.999 -228.002 -35.999s-127.667 -58.833 -177 -104.5s-87.333 -100.167 -114 -163.5s-40 -133.333 -40 -210c0 -74.667 13.333 -143.667 40 -207c26.667 -62.667 64.667 -116.334 114 -161.001s108.333 -79.167 177 -103.5
s143.334 -36.5 224.001 -36.5c111.333 0 210 21.167 296 63.5s152.833 102.5 200.5 180.5s71.5 167.333 71.5 268c0 100 -23.667 188.667 -71 266c-47.333 78 -113.666 138.167 -198.999 180.5s-183.333 63.5 -294 63.5zM554.998 606.001
c37.333 0 66.167 -12.668 86.5 -38.001s30.5 -55.666 30.5 -90.999c0 -36 -9.66699 -66.5 -29 -91.5s-47.333 -37.5 -84 -37.5c-34.667 0 -61.667 13.167 -81 39.5s-29 56.833 -29 91.5c0 34 9.33301 63.667 28 89s44.667 38 78 38zM192.999 1379l284 -325h236l-113 325
h-407z" />
    <glyph glyph-name="oacute" unicode="&#xf3;" 
d="M559 989c-83.333 0 -159.335 -11.999 -228.002 -35.999s-127.667 -58.833 -177 -104.5s-87.333 -100.167 -114 -163.5s-40 -133.333 -40 -210c0 -74.667 13.333 -143.667 40 -207c26.667 -62.667 64.667 -116.334 114 -161.001s108.333 -79.167 177 -103.5
s143.334 -36.5 224.001 -36.5c111.333 0 210 21.167 296 63.5s152.833 102.5 200.5 180.5s71.5 167.333 71.5 268c0 100 -23.667 188.667 -71 266c-47.333 78 -113.666 138.167 -198.999 180.5s-183.333 63.5 -294 63.5zM554.998 606.001
c37.333 0 66.167 -12.668 86.5 -38.001s30.5 -55.666 30.5 -90.999c0 -36 -9.66699 -66.5 -29 -91.5s-47.333 -37.5 -84 -37.5c-34.667 0 -61.667 13.167 -81 39.5s-29 56.833 -29 91.5c0 34 9.33301 63.667 28 89s44.667 38 78 38zM390.999 1054h238l281 325h-404z" />
    <glyph glyph-name="ocircumflex" unicode="&#xf4;" 
d="M559 989c-83.333 0 -159.335 -11.999 -228.002 -35.999s-127.667 -58.833 -177 -104.5s-87.333 -100.167 -114 -163.5s-40 -133.333 -40 -210c0 -74.667 13.333 -143.667 40 -207c26.667 -62.667 64.667 -116.334 114 -161.001s108.333 -79.167 177 -103.5
s143.334 -36.5 224.001 -36.5c111.333 0 210 21.167 296 63.5s152.833 102.5 200.5 180.5s71.5 167.333 71.5 268c0 100 -23.667 188.667 -71 266c-47.333 78 -113.666 138.167 -198.999 180.5s-183.333 63.5 -294 63.5zM554.998 606.001
c37.333 0 66.167 -12.668 86.5 -38.001s30.5 -55.666 30.5 -90.999c0 -36 -9.66699 -66.5 -29 -91.5s-47.333 -37.5 -84 -37.5c-34.667 0 -61.667 13.167 -81 39.5s-29 56.833 -29 91.5c0 34 9.33301 63.667 28 89s44.667 38 78 38zM179.999 1057h269l110 156l115 -156h281
l-195 322h-395z" />
    <glyph glyph-name="otilde" unicode="&#xf5;" 
d="M559 989c-83.333 0 -159.335 -11.999 -228.002 -35.999s-127.667 -58.833 -177 -104.5s-87.333 -100.167 -114 -163.5s-40 -133.333 -40 -210c0 -74.667 13.333 -143.667 40 -207c26.667 -62.667 64.667 -116.334 114 -161.001s108.333 -79.167 177 -103.5
s143.334 -36.5 224.001 -36.5c111.333 0 210 21.167 296 63.5s152.833 102.5 200.5 180.5s71.5 167.333 71.5 268c0 100 -23.667 188.667 -71 266c-47.333 78 -113.666 138.167 -198.999 180.5s-183.333 63.5 -294 63.5zM554.998 606.001
c37.333 0 66.167 -12.668 86.5 -38.001s30.5 -55.666 30.5 -90.999c0 -36 -9.66699 -66.5 -29 -91.5s-47.333 -37.5 -84 -37.5c-34.667 0 -61.667 13.167 -81 39.5s-29 56.833 -29 91.5c0 34 9.33301 63.667 28 89s44.667 38 78 38zM325.999 1057
c52 50.667 96.3311 76 132.998 76c18.667 0 36.834 -3.33301 54.501 -10s39.834 -17 66.501 -31c26.667 -13.333 48 -23 64 -29c16 -5.33301 33 -8 51 -8c64 0 130.333 40.333 199 121l-99 186l-14 -16c-40 -34 -80.333 -51 -121 -51c-14 0 -55.667 8.66699 -125 26
c-42.667 14 -83.667 21 -123 21c-79.333 0 -147 -35.667 -203 -107z" />
    <glyph glyph-name="odieresis" unicode="&#xf6;" 
d="M559 989c-83.333 0 -159.335 -11.999 -228.002 -35.999s-127.667 -58.833 -177 -104.5s-87.333 -100.167 -114 -163.5s-40 -133.333 -40 -210c0 -74.667 13.333 -143.667 40 -207c26.667 -62.667 64.667 -116.334 114 -161.001s108.333 -79.167 177 -103.5
s143.334 -36.5 224.001 -36.5c111.333 0 210 21.167 296 63.5s152.833 102.5 200.5 180.5s71.5 167.333 71.5 268c0 100 -23.667 188.667 -71 266c-47.333 78 -113.666 138.167 -198.999 180.5s-183.333 63.5 -294 63.5zM554.998 606.001
c37.333 0 66.167 -12.668 86.5 -38.001s30.5 -55.666 30.5 -90.999c0 -36 -9.66699 -66.5 -29 -91.5s-47.333 -37.5 -84 -37.5c-34.667 0 -61.667 13.167 -81 39.5s-29 56.833 -29 91.5c0 34 9.33301 63.667 28 89s44.667 38 78 38zM376.999 1397
c-56 0 -99.333 -17.666 -130 -52.999c-30.667 -34.667 -46 -76.334 -46 -125.001c0 -49.333 15.333 -91.666 46 -126.999s74 -53 130 -53c54.667 0 97 17.667 127 53s45 77.666 45 126.999c0 48 -15 89.667 -45 125s-72.333 53 -127 53zM806.999 1397
c-54 0 -96.167 -17.668 -126.5 -53.001s-45.5 -77 -45.5 -125c0 -49.333 15 -91.666 45 -126.999s72.333 -53 127 -53s96.667 17.333 126 52c29.333 35.333 44 77.333 44 126c0 48 -15 90 -45 126s-71.667 54 -125 54z" />
    <glyph glyph-name="oslash" unicode="&#xf8;" 
d="M1047 1014l-136.999 -124.999c-40.667 30.667 -92.667 55 -156 73c-62.667 18 -126.334 27 -191.001 27c-112 0 -210.167 -21.167 -294.5 -63.5s-149.5 -102.5 -195.5 -180.5c-46 -77.333 -69 -167.333 -69 -270c0 -130 35.333 -235.667 106 -317l-131 -117l95 -97
l137 120c100.667 -66 213.334 -99 338.001 -99c97.333 0 190.166 20.5 278.499 61.5s159.5 100.5 213.5 178.5c54.667 77.333 82 168.666 82 273.999c0 120 -35.667 227.333 -107 322l129 111zM707.001 514.001c2.66699 -13.333 4 -25.667 4 -37
c0 -44 -15.333 -81.833 -46 -113.5s-67.334 -47.5 -110.001 -47.5c-17.333 0 -36.666 4 -57.999 12zM416.001 441c-4.66699 14 -7 28.333 -7 43c0 42.667 16 79.667 48 111c30.667 30.667 67.667 46 111 46c22.667 0 41.667 -3.33301 57 -10z" />
    <glyph glyph-name="ugrave" unicode="&#xf9;" 
d="M1094 959h-459.001v-497c0 -41.333 -5.33301 -71 -16 -89c-11.333 -19.333 -31.333 -29 -60 -29c-44 0 -66 39 -66 117v498h-456v-527c0 -74.667 11.667 -140.667 35 -198c22.667 -56.667 56.334 -104.667 101.001 -144c44.667 -38.667 99.5 -68.167 164.5 -88.5
s140.167 -30.5 225.5 -30.5c112 0 207.667 18 287 54c80 34.667 140.667 86.5 182 155.5s62 152.833 62 251.5v527zM196.999 1379l280 -324h236l-113 324h-403z" />
    <glyph glyph-name="uacute" unicode="&#xfa;" 
d="M1094 959h-459.001v-497c0 -41.333 -5.33301 -71 -16 -89c-11.333 -19.333 -31.333 -29 -60 -29c-44 0 -66 39 -66 117v498h-456v-527c0 -74.667 11.667 -140.667 35 -198c22.667 -56.667 56.334 -104.667 101.001 -144c44.667 -38.667 99.5 -68.167 164.5 -88.5
s140.167 -30.5 225.5 -30.5c112 0 207.667 18 287 54c80 34.667 140.667 86.5 182 155.5s62 152.833 62 251.5v527zM395.999 1055h235l279 324h-404z" />
    <glyph glyph-name="ucircumflex" unicode="&#xfb;" 
d="M1094 958l-459.001 -0.000976562v-497c0 -41.333 -5.5 -71.166 -16.5 -89.499s-30.833 -27.5 -59.5 -27.5c-44 0 -66 39 -66 117v497h-456v-526c0 -74.667 11.667 -140.667 35 -198c22.667 -56.667 56.334 -104.667 101.001 -144
c44.667 -38.667 99.5 -68.167 164.5 -88.5s140.167 -30.5 225.5 -30.5c112 0 207.667 18 287 54c80 34.667 140.667 86.5 182 155.5s62 152.833 62 251.5v526zM179.999 1057h269l110 156l119 -156h277l-191 322h-399z" />
    <glyph glyph-name="udieresis" unicode="&#xfc;" 
d="M1094 959h-459.001v-497c0 -41.333 -5.33301 -71 -16 -89c-11.333 -19.333 -31.333 -29 -60 -29c-44 0 -66 39 -66 117v498h-456v-527c0 -74.667 11.667 -140.667 35 -198c22.667 -56.667 56.334 -104.667 101.001 -144c44.667 -38.667 99.5 -68.167 164.5 -88.5
s140.167 -30.5 225.5 -30.5c112 0 207.667 18 287 54c80 34.667 140.667 86.5 182 155.5s62 152.833 62 251.5v527zM376.999 1397c-37.333 0 -68.833 -8.33203 -94.5 -24.999s-45 -38.5 -58 -65.5s-19.5 -56.167 -19.5 -87.5c0 -48.667 15.333 -91 46 -127
c30 -35.333 72 -53 126 -53c54.667 0 97 17.667 127 53s45 77.666 45 126.999c0 48 -15 89.667 -45 125s-72.333 53 -127 53zM810.999 1397c-54.667 0 -97.667 -17.668 -129 -53.001s-47 -77 -47 -125c0 -49.333 15.667 -91.666 47 -126.999s74.333 -53 129 -53
s96.667 17.333 126 52c29.333 35.333 44 77.333 44 126c0 48 -15 90 -45 126s-71.667 54 -125 54z" />
    <glyph glyph-name="yacute" unicode="&#xfd;" horiz-adv-x="1204" 
d="M-4 959l383 -887l-229 -459h485l137 311l441 1035h-475l-129 -437l-136 437h-477zM441 1055h229l285 324h-410z" />
    <glyph glyph-name="ydieresis" unicode="&#xff;" horiz-adv-x="1204" 
d="M-4 959l383 -887l-229 -459h485l137 311l441 1035h-475l-129 -437l-136 437h-477zM416 1397c-54 0 -96.167 -17.668 -126.5 -53.001s-45.5 -77 -45.5 -125c0 -48.667 15 -91 45 -127c30.667 -35.333 73 -53 127 -53c55.333 0 98 17 128 51
c29.333 34.667 44 76.334 44 125.001c0 49.333 -15.167 92 -45.5 128s-72.5 54 -126.5 54zM852 1397c-55.333 0 -98.833 -17.667 -130.5 -53s-47.5 -77 -47.5 -125c0 -49.333 15.833 -91.666 47.5 -126.999s75.167 -53 130.5 -53c54 0 95.833 17.667 125.5 53
s44.5 77.666 44.5 126.999c0 48 -14.833 89.667 -44.5 125s-71.5 53 -125.5 53z" />
    <glyph glyph-name="OE" unicode="&#x152;" horiz-adv-x="1831" 
d="M951 0l871.999 0.000976562v369h-403v127h356v356h-356v121h382v377h-847v-103c-46 35.333 -85.667 62 -119 80c-34 18.667 -67 31.167 -99 37.5s-69.333 9.5 -112 9.5c-122.667 0 -232 -33.5 -328 -100.5s-170.167 -155.833 -222.5 -266.5s-78.5 -227 -78.5 -349
c0 -133.333 26 -252.333 78 -357s124.833 -185.834 218.5 -243.501s200.5 -86.5 320.5 -86.5c42.667 0 79.167 3 109.5 9s61.833 17.167 94.5 33.5s77.334 42.5 134.001 78.5v-92zM716.999 922.001c69.333 0 123.5 -24.667 162.5 -74s58.5 -107.333 58.5 -174
c0 -66 -19.667 -123.333 -59 -172s-93.333 -73 -162 -73c-68 0 -121.333 24.333 -160 73s-58 106.667 -58 174c0 42.667 8.33301 82.667 25 120c17.333 38 42.333 68.333 75 91c32.667 23.333 72 35 118 35z" />
    <glyph glyph-name="oe" unicode="&#x153;" horiz-adv-x="1749" 
d="M1258 320c-12.667 -49.333 -40.0049 -73.998 -82.0049 -73.998c-30 0 -52.333 11.5 -67 34.5s-25.334 61.5 -32.001 115.5h656v12c0 112.667 -22 213 -66 301s-106 156 -186 204s-172.333 72 -277 72c-60.667 0 -110.667 -7 -150 -21s-97.666 -45.667 -174.999 -95
c-48.667 34.667 -88 59.667 -118 75c-30 16 -59.833 26.833 -89.5 32.5s-67.167 8.5 -112.5 8.5c-80.667 0 -154.5 -12.167 -221.5 -36.5s-124.833 -59 -173.5 -104s-86.167 -99 -112.5 -162s-39.5 -132.167 -39.5 -207.5c0 -98.667 23 -186.667 69 -264
c44.667 -77.333 107.834 -137.333 189.501 -180s174.5 -64 278.5 -64c44.667 0 81.667 2.66699 111 8s58 15.166 86 29.499s66.667 38.166 116 71.499c62.667 -42 116.834 -70.667 162.501 -86s101.5 -23 167.5 -23c72.667 0 147.334 13.667 224.001 41
c76.667 28 142.334 68.333 197.001 121c54.667 53.333 87.334 117 98.001 191h-453zM571.995 606.002c35.333 0 62.833 -12.668 82.5 -38.001s29.5 -55.666 29.5 -90.999c0 -36 -9.66699 -66.333 -29 -91s-47 -37 -83 -37s-63.667 12.333 -83 37
c-20 25.333 -30 55.666 -30 90.999c0 34.667 10.167 64.834 30.5 90.501s47.833 38.5 82.5 38.5zM1082 594.001c8 78 40.667 116.999 98 116.999c32.667 0 56.667 -8.66699 72 -26s24 -47.666 26 -90.999h-196z" />
    <glyph glyph-name="circumflex" unicode="&#x2c6;" horiz-adv-x="209" 
d="M-380 1057h260l120 156l115 -156h272l-190 322h-394z" />
    <glyph glyph-name="tilde" unicode="&#x2dc;" horiz-adv-x="209" 
d="M-236 1057c34.667 30.667 60.499 51 77.499 61s34.167 15 51.5 15c24 0 50 -6.66699 78 -20l85 -39c27.333 -12.667 53 -19 77 -19c63.333 0 130.333 40.333 201 121l-102 186l-17 -16c-39.333 -34 -78.666 -51 -117.999 -51c-14 0 -56 8.66699 -126 26
c-46.667 14 -87 21 -121 21c-79.333 0 -147 -35.667 -203 -107z" />
    <glyph glyph-name="emdash" unicode="&#x2013;" horiz-adv-x="1252" 
d="M16 408h195h1028v278h-198h-1025v-278z" />
    <glyph glyph-name="endash" unicode="&#x2014;" horiz-adv-x="1252" 
d="M16 408h195h1028v278h-198h-1025v-278z" />
    <glyph glyph-name="quoteleft" unicode="&#x2018;" horiz-adv-x="666" 
d="M-4 678h457l213 672h-357z" />
    <glyph glyph-name="quoteright" unicode="&#x2019;" horiz-adv-x="666" 
d="M-4 678h357l313 672h-457z" />
    <glyph glyph-name="quotedblleft" unicode="&#x201c;" horiz-adv-x="1164" 
d="M-8 678h457l213 672h-357zM498 678h459l211 672h-357z" />
    <glyph glyph-name="quotedblright" unicode="&#x201d;" horiz-adv-x="1164" 
d="M-8 678h358l312 672h-457zM498 678h356l314 672h-455z" />
    <glyph glyph-name="quotedblbase" unicode="&#x201e;" horiz-adv-x="1045" 
d="M-115 -307h358l312 668h-452zM391 -307h358l312 668h-448z" />
    <glyph glyph-name="dagger" unicode="&#x2020;" horiz-adv-x="996" 
d="M-8 611h287v-1007h438l1 1007h282v419h-283v320h-438v-320h-287v-419z" />
    <glyph glyph-name="perthousand" unicode="&#x2030;" horiz-adv-x="2583" 
d="M416 1379c-81.333 0 -153.333 -16.1641 -216 -48.4971s-111 -77.833 -145 -136.5s-51 -127 -51 -205c0 -76.667 19.167 -142.667 57.5 -198s88.833 -97 151.5 -125c62.667 -27.333 129 -41 199 -41c51.333 0 102 7.66699 152 23c50 16 95 39.667 135 71
s71.5 70.166 94.5 116.499s34.5 99.166 34.5 158.499c0 57.333 -9.83301 109.5 -29.5 156.5s-47.667 87.667 -84 122s-80 60.666 -131 78.999s-106.833 27.5 -167.5 27.5zM412 1106c26 0 46.167 -10.667 60.5 -32s21.5 -46.666 21.5 -75.999s-7.33301 -54.333 -22 -75
c-14 -21.333 -34 -32 -60 -32c-24 0 -42.667 10.5 -56 31.5s-20 46.167 -20 75.5s6.66699 54.666 20 75.999s32 32 56 32zM408 -32.9971h213l198 402l510 1036h-206l-205 -403zM1317 731.003c-82.667 0 -155.5 -15.998 -218.5 -47.998s-111.667 -77.333 -146 -136
s-51.5 -126.334 -51.5 -203.001c0 -58 11.667 -110.333 35 -157c22.667 -46 53.334 -84.667 92.001 -116c38.667 -30.667 82.667 -54 132 -70s99.666 -24 150.999 -24c70.667 0 137.667 14.667 201 44c64 28 115.333 70.167 154 126.5s58 123.166 58 200.499
c0 75.333 -16.667 142 -50 200c-34.667 58 -83 103 -145 135s-132.667 48 -212 48zM1317 457.005c24.667 0 43.667 -10.333 57 -31c14 -20.667 21 -45 21 -73c0 -28.667 -7 -53.667 -21 -75s-33 -32 -57 -32c-26.667 0 -47.334 10.333 -62.001 31s-22 45 -22 73
c0 29.333 7.33301 54.5 22 75.5s35.334 31.5 62.001 31.5zM2171 731.005c-62 0 -118.331 -9.00098 -168.998 -27.001s-94 -44 -130 -78s-63.667 -75 -83 -123c-20 -47.333 -30 -100.333 -30 -159c0 -77.333 19.167 -143.666 57.5 -198.999s88.666 -97.166 150.999 -125.499
s128.833 -42.5 199.499 -42.5c70 0 136.667 14.667 200 44c63.333 28 114.5 70.167 153.5 126.5s58.5 123.166 58.5 200.499c0 75.333 -17 142 -51 200s-82 103 -144 135s-133 48 -213 48zM2171 457.004c26 0 46.167 -10.5 60.5 -31.5s21.5 -46.167 21.5 -75.5
c0 -28 -7.16699 -52.333 -21.5 -73s-34.5 -31 -60.5 -31c-24.667 0 -44.5 10.5 -59.5 31.5s-22.5 46.167 -22.5 75.5c0 27.333 7.33301 51.5 22 72.5s34.667 31.5 60 31.5z" />
    <glyph glyph-name="guilsinglleft" unicode="&#x2039;" horiz-adv-x="459" 
d="M-8 570l287 -424l182 141l-199 287l191 266l-174 133z" />
    <glyph glyph-name="guilsinglright" unicode="&#x203a;" horiz-adv-x="459" 
d="M-8 287l180 -141l289 424l-289 403l-168 -133l185 -266z" />
    <glyph glyph-name=".null" horiz-adv-x="0" 
 />
    <glyph glyph-name="nonmarkingreturn" horiz-adv-x="0" 
 />
    </font>
</defs>
</svg>
