<?xml version="1.0" encoding="utf-8"?>
<!-- Generator: Adobe Illustrator 16.0.0, SVG Export Plug-In . SVG Version: 6.00 Build 0)  -->
<!DOCTYPE svg PUBLIC "-//W3C//DTD SVG 1.1//EN" "http://www.w3.org/Graphics/SVG/1.1/DTD/svg11.dtd">
<svg version="1.1" xmlns="http://www.w3.org/2000/svg" xmlns:xlink="http://www.w3.org/1999/xlink" x="0px" y="0px"
	 width="292.758px" height="100.188px" viewBox="0 0 292.758 100.188" enable-background="new 0 0 292.758 100.188"
	 xml:space="preserve">
<g id="Layer_2">
	<g>
		<path fill="#FFFFFF" d="M51.875,8.889c0,0-12.873-1.657-18.481,13.51c-3.892,10.528-3.595,30.221-3.823,37.982
			c0,0,1.657,29.442-14.913,38.11c0,0-8.668,2.421-14.658,1.147l0.255-7.393c6.501-0.892,23.197,3.824,20.904-43.08
			C18.454-6.133,52.513,0.222,52.513,0.222L51.875,8.889z"/>
		<path fill="#FFFFFF" d="M96.995,10.418l-30.717,0.127c0,0,0.486,14.429,1.147,27.404c1.02,20.01,4.694,30.709,5.735,32.756
			c0,0,8.54,19.627,25.619,23.579l0.254,5.29c-21.03-3.25-36.708-22.751-38.491-44.036c-0.744-8.875-2.422-37.6-2.422-44.1
			s3.441-10.452,3.441-10.452h35.306L96.995,10.418z"/>
		<path fill="#FFFFFF" d="M125.163,1.242c0,0-27.801,63.495-22.942,79.532c4.651,15.358,10.706,18.099,17.588,18.863
			c6.883,0.765,33.904,0.51,33.904,0.51l-0.255-99.161l-9.941,0.256l0.254,91.258l-24.726-0.254c0,0-9.251-7.952-7.967-17.717
			c0.956-7.265,4.989-24.167,8.986-36.516c5.954-18.398,15.04-36.262,15.04-36.262L125.163,1.242z"/>
		<polygon fill="#FFFFFF" points="161.551,1.114 171.492,1.114 171.685,90.397 200.554,90.206 200.936,99.574 162.315,99.956 		"/>
		<path fill="#FFFFFF" d="M239.745,1.496c-3.632-0.382-32.501,0-32.501,0l0.382,98.651l9.561-0.382l-0.957-59.841
			c0,0,29.061-15.486,30.781-23.707C248.731,7.996,243.378,1.878,239.745,1.496z M237.26,13.35
			c-0.371,6.692-22.941,15.486-22.941,15.486l0.19-19.118c0,0,18.162,0.191,19.118,0.191S237.452,9.908,237.26,13.35z"/>
		<polygon fill="#FFFFFF" points="250.835,0.158 250.835,10.481 265.363,10.673 265.556,99.765 275.306,99.765 274.923,9.908 
			292.758,9.751 292.758,0.339 		"/>
	</g>
</g>
<g id="Layer_3">
</g>
<g id="Layer_4">
</g>
<g id="Layer_5">
</g>
<g id="Layer_6">
</g>
<g id="Layer_7">
</g>
<g id="Layer_8">
</g>
</svg>
